<svg xmlns="http://www.w3.org/2000/svg" width="468" height="468" viewBox="0 0 468 468"><rect width="468" height="468" fill="none"/><path d="M356.416,76.619H221.971L212.6,46.17s2.342-11.243-6.558-15.927l44.5-2.342v-.937L199.017,25.09V19h-7.5v5.621L139.992,26.5v.937l44.5,2.342c-8.9,5.153-6.558,15.927-6.558,15.927l-9.369,30.449H33.186A22.8,22.8,0,0,0,10.7,98.636v7.5a22.8,22.8,0,0,0,22.486,22.486H157.793L172.315,248.54c-32.791,0-53.4,27.17-53.4,27.17v25.3l66.988-7.5,8.9,15.927,8.9-15.459,66.988,7.5v-25.3s-21.08-27.17-53.4-27.17l14.522-119.923H356.416A22.8,22.8,0,0,0,378.9,106.6V99.1A22.491,22.491,0,0,0,356.416,76.619Z" transform="translate(39.424 70.005)" fill="#dfdfdf"/></svg>