<svg xmlns="http://www.w3.org/2000/svg" xmlns:xlink="http://www.w3.org/1999/xlink" width="540.3" height="359.9" viewBox="0 0 540.3 359.9">
  <defs>
    <clipPath id="clip-path">
      <path id="Path_12" data-name="Path 12" d="M36,66.9C36,47.1,53.3,31,74.4,31H537.9c21.2,0,38.4,16.2,38.4,35.8V355.1c0,19.8-17.4,35.8-38.4,35.8H74.4C53.2,391,36,374.8,36,355.2Z" transform="translate(-36 -31.1)"/>
    </clipPath>
    <clipPath id="clip-path-3">
      <path id="Path_14" data-name="Path 14" d="M36,66.9C36,47.1,53.3,31,74.4,31H537.9c21.2,0,38.4,16.2,38.4,35.8V355.1c0,19.8-17.4,35.8-38.4,35.8H74.4C53.2,391,36,374.8,36,355.2Z" transform="translate(-36 -151)"/>
    </clipPath>
    <clipPath id="clip-path-4">
      <path id="Path_15" data-name="Path 15" d="M36,66.9C36,47.1,53.3,31,74.4,31H537.9c21.2,0,38.4,16.2,38.4,35.8V355.1c0,19.8-17.4,35.8-38.4,35.8H74.4C53.2,391,36,374.8,36,355.2Z" transform="translate(-36 -271)"/>
    </clipPath>
    <clipPath id="clip-path-5">
      <path id="Path_41" data-name="Path 41" d="M36,66.9C36,47.1,53.3,31,74.4,31H537.9c21.2,0,38.4,16.2,38.4,35.8V355.1c0,19.8-17.4,35.8-38.4,35.8H74.4C53.2,391,36,374.8,36,355.2Z"/>
    </clipPath>
  </defs>
  <g id="_4407673031553750387" data-name="4407673031553750387" transform="translate(-36 -31)">
    <g id="Group_11" data-name="Group 11" transform="translate(36 31.1)" clip-path="url(#clip-path)">
      <rect id="Rectangle_32" data-name="Rectangle 32" width="540.4" height="120" fill="#f89938"/>
    </g>
    <g id="Group_12" data-name="Group 12" transform="translate(36 31.1)" clip-path="url(#clip-path)">
      <rect id="Rectangle_33" data-name="Rectangle 33" width="540.4" height="360" fill="none"/>
    </g>
    <g id="Group_13" data-name="Group 13" transform="translate(36 151)" clip-path="url(#clip-path-3)">
      <rect id="Rectangle_34" data-name="Rectangle 34" width="540.4" height="120" fill="#fff"/>
    </g>
    <g id="Group_14" data-name="Group 14" transform="translate(36 271)" clip-path="url(#clip-path-4)">
      <rect id="Rectangle_35" data-name="Rectangle 35" width="540.4" height="120" fill="#1c8943"/>
    </g>
    <g id="Group_37" data-name="Group 37" clip-path="url(#clip-path-5)">
      <circle id="Ellipse_9" data-name="Ellipse 9" cx="55.9" cy="55.9" r="55.9" transform="translate(250.3 155.7)" fill="#2c479e"/>
      <path id="Path_16" data-name="Path 16" d="M343.5,244.1a3.018,3.018,0,0,1,0-4.3,3.054,3.054,0,0,1,4-.3,58.849,58.849,0,0,0,3.5-6c-.1,0-.2-.1-.3-.1a2.983,2.983,0,0,1-1.1-4.2,3.073,3.073,0,0,1,3.8-1.3,63.552,63.552,0,0,0,1.8-6.6,3.019,3.019,0,0,1-2.6-3,3.116,3.116,0,0,1,3.1-3.1h.4c.1-1.2.1-2.4.1-3.6,0-1.1,0-2.2-.1-3.3h-.4a3.116,3.116,0,0,1-3.1-3.1,3.031,3.031,0,0,1,2.7-3,38.994,38.994,0,0,0-1.8-6.7.6.6,0,0,1-.4.1,3.157,3.157,0,0,1-3.8-2.2,3.01,3.01,0,0,1,1.8-3.6,58.2,58.2,0,0,0-3.4-6,3.066,3.066,0,0,1-4.1-.2,3.018,3.018,0,0,1,0-4.3l.3-.3a45.339,45.339,0,0,0-4.9-4.9,1.38,1.38,0,0,0-.3.4,3.018,3.018,0,0,1-4.3,0,3.066,3.066,0,0,1-.2-4.1,44.754,44.754,0,0,0-6-3.5c-.1.2-.1.3-.2.5a2.983,2.983,0,0,1-4.2,1.1,3.09,3.09,0,0,1-1.3-3.9c-2.2-.7-4.4-1.3-6.7-1.8a3,3,0,0,1-3.1,2.8,3.116,3.116,0,0,1-3.1-3.1V162c-1.2-.1-2.3-.1-3.5-.1s-2.3,0-3.4.1a4.331,4.331,0,0,0,.1.5,3.108,3.108,0,0,1-6.2.3,52.318,52.318,0,0,0-6.8,1.8c.1.2.1.3.2.5a3.157,3.157,0,0,1-2.2,3.8,3.088,3.088,0,0,1-3.7-1.9,56.634,56.634,0,0,0-5.9,3.4,2.963,2.963,0,0,1-.2,4.1,3.018,3.018,0,0,1-4.3,0c-.1-.1-.2-.3-.3-.4a56.644,56.644,0,0,0-4.9,4.9c.1.1.3.2.4.3a3.018,3.018,0,0,1,0,4.3,3.066,3.066,0,0,1-4.1.2,44.755,44.755,0,0,0-3.5,6c.2.1.3.1.5.2a2.983,2.983,0,0,1,1.1,4.2,3.09,3.09,0,0,1-3.9,1.3q-1.05,3.3-1.8,6.6a3.2,3.2,0,0,1,2.8,3,3.116,3.116,0,0,1-3.1,3.1h-.5c-.1,1.1-.1,2.2-.1,3.3,0,1.2,0,2.4.1,3.6h.5a3.116,3.116,0,0,1,3.1,3.1,2.96,2.96,0,0,1-2.7,3c.5,2.3,1.1,4.5,1.8,6.7a.6.6,0,0,1,.4-.1,3.157,3.157,0,0,1,3.8,2.2,3.01,3.01,0,0,1-1.8,3.6,43.635,43.635,0,0,0,3.5,5.9,3.054,3.054,0,0,1,4,.3,3.018,3.018,0,0,1,0,4.3c-.1.1-.2.2-.3.2a45.339,45.339,0,0,0,4.9,4.9c.1-.1.2-.2.2-.3a3.018,3.018,0,0,1,4.3,0,3.054,3.054,0,0,1,.3,4,44.151,44.151,0,0,0,6,3.4c0-.1.1-.2.2-.3a2.983,2.983,0,0,1,4.2-1.1,3.073,3.073,0,0,1,1.3,3.8c2.1.7,4.4,1.3,6.6,1.8a3.019,3.019,0,0,1,3-2.6,3.116,3.116,0,0,1,3.1,3.1v.3c1.1.1,2.3.1,3.4.1,1.2,0,2.3,0,3.5-.1V261a3.116,3.116,0,0,1,3.1-3.1,3.019,3.019,0,0,1,3,2.6,39,39,0,0,0,6.7-1.8c0-.1-.1-.2-.1-.3a3.157,3.157,0,0,1,2.2-3.8,3,3,0,0,1,3.6,1.7,49.94,49.94,0,0,0,5.9-3.4,3.024,3.024,0,0,1,4.6-3.9l.2.2a45.337,45.337,0,0,0,4.9-4.9C343.6,244.2,343.5,244.2,343.5,244.1Z" fill="#fff"/>
      <g id="Group_36" data-name="Group 36">
        <g id="Group_21" data-name="Group 21">
          <g id="Group_17" data-name="Group 17">
            <g id="Group_15" data-name="Group 15">
              <path id="Path_17" data-name="Path 17" d="M306.2,161.8l-2,28.6a129.072,129.072,0,0,1,2,21.1,133.951,133.951,0,0,1,1.9-21.1Z" fill="#2c479e"/>
              <path id="Path_18" data-name="Path 18" d="M306.2,261.3l-2-28.6a129.072,129.072,0,0,0,2-21.1,133.951,133.951,0,0,0,1.9,21.1Z" fill="#2c479e"/>
            </g>
            <g id="Group_16" data-name="Group 16">
              <path id="Path_19" data-name="Path 19" d="M355.9,211.6l-28.6-2a129.072,129.072,0,0,1-21.1,2,133.951,133.951,0,0,1,21.1,1.9Z" fill="#2c479e"/>
              <path id="Path_20" data-name="Path 20" d="M256.4,211.6l28.6-2a129.072,129.072,0,0,0,21.1,2,133.951,133.951,0,0,0-21.1,1.9Z" fill="#2c479e"/>
            </g>
          </g>
          <g id="Group_20" data-name="Group 20">
            <g id="Group_18" data-name="Group 18">
              <path id="Path_21" data-name="Path 21" d="M341.4,176.4l-21.6,18.8a125.453,125.453,0,0,1-13.6,16.3,135.779,135.779,0,0,1,16.3-13.6Z" fill="#2c479e"/>
              <path id="Path_22" data-name="Path 22" d="M271,246.8l18.8-21.6a125.453,125.453,0,0,0,16.3-13.6,135.778,135.778,0,0,0-13.6,16.3Z" fill="#2c479e"/>
            </g>
            <g id="Group_19" data-name="Group 19">
              <path id="Path_23" data-name="Path 23" d="M341.3,246.8l-18.8-21.6a125.453,125.453,0,0,1-16.3-13.6,135.778,135.778,0,0,1,13.6,16.3Z" fill="#2c479e"/>
              <path id="Path_24" data-name="Path 24" d="M270.9,176.4l21.6,18.8a125.453,125.453,0,0,0,13.6,16.3,135.779,135.779,0,0,0-16.3-13.6Z" fill="#2c479e"/>
            </g>
          </g>
        </g>
        <g id="Group_28" data-name="Group 28">
          <g id="Group_24" data-name="Group 24">
            <g id="Group_22" data-name="Group 22">
              <path id="Path_25" data-name="Path 25" d="M319.3,163.6l-9.4,27.1a134.366,134.366,0,0,1-3.7,20.9,133.913,133.913,0,0,1,7.4-19.9Z" fill="#2c479e"/>
              <path id="Path_26" data-name="Path 26" d="M293.1,259.6l5.6-28.1a128.248,128.248,0,0,0,7.5-19.9,134.37,134.37,0,0,0-3.7,20.9Z" fill="#2c479e"/>
            </g>
            <g id="Group_23" data-name="Group 23">
              <path id="Path_27" data-name="Path 27" d="M354.2,224.7l-27.1-9.4a134.367,134.367,0,0,1-20.9-3.7,133.916,133.916,0,0,1,19.9,7.4Z" fill="#2c479e"/>
              <path id="Path_28" data-name="Path 28" d="M258.1,198.5l28.1,5.6a128.25,128.25,0,0,0,19.9,7.5,134.367,134.367,0,0,0-20.9-3.7Z" fill="#2c479e"/>
            </g>
          </g>
          <g id="Group_27" data-name="Group 27">
            <g id="Group_25" data-name="Group 25">
              <path id="Path_29" data-name="Path 29" d="M349.4,186.9l-25.8,12.5a129.553,129.553,0,0,1-17.4,12.2,133.7,133.7,0,0,1,19.3-8.8Z" fill="#2c479e"/>
              <path id="Path_30" data-name="Path 30" d="M263,236.3l23.9-15.9a128.562,128.562,0,0,0,19.3-8.8,134.239,134.239,0,0,0-17.4,12.1Z" fill="#2c479e"/>
            </g>
            <g id="Group_26" data-name="Group 26">
              <path id="Path_31" data-name="Path 31" d="M330.8,254.8,318.3,229a129.554,129.554,0,0,1-12.2-17.4,133.7,133.7,0,0,1,8.8,19.3Z" fill="#2c479e"/>
              <path id="Path_32" data-name="Path 32" d="M281.4,168.4l15.9,23.9a128.563,128.563,0,0,0,8.8,19.3A134.236,134.236,0,0,0,294,194.2Z" fill="#2c479e"/>
            </g>
          </g>
        </g>
        <g id="Group_35" data-name="Group 35">
          <g id="Group_31" data-name="Group 31">
            <g id="Group_29" data-name="Group 29">
              <path id="Path_33" data-name="Path 33" d="M331.1,168.5l-16,23.8a123.4,123.4,0,0,1-8.9,19.3,137.76,137.76,0,0,1,12.2-17.4Z" fill="#2c479e"/>
              <path id="Path_34" data-name="Path 34" d="M281.3,254.7,293.9,229a138.968,138.968,0,0,0,12.3-17.3,136.824,136.824,0,0,0-8.9,19.2Z" fill="#2c479e"/>
            </g>
            <g id="Group_30" data-name="Group 30">
              <path id="Path_35" data-name="Path 35" d="M349.2,236.5l-23.8-16a123.4,123.4,0,0,1-19.3-8.9,137.762,137.762,0,0,1,17.4,12.2Z" fill="#2c479e"/>
              <path id="Path_36" data-name="Path 36" d="M263.1,186.7l25.7,12.6a138.969,138.969,0,0,0,17.3,12.3,136.823,136.823,0,0,0-19.2-8.9Z" fill="#2c479e"/>
            </g>
          </g>
          <g id="Group_34" data-name="Group 34">
            <g id="Group_32" data-name="Group 32">
              <path id="Path_37" data-name="Path 37" d="M354.2,198.8l-28.1,5.5a133.914,133.914,0,0,1-19.9,7.4,127.61,127.61,0,0,1,20.9-3.6Z" fill="#2c479e"/>
              <path id="Path_38" data-name="Path 38" d="M258.1,224.5l27.1-9.3a127.61,127.61,0,0,0,20.9-3.6,140.194,140.194,0,0,0-19.9,7.3Z" fill="#2c479e"/>
            </g>
            <g id="Group_33" data-name="Group 33">
              <path id="Path_39" data-name="Path 39" d="M319,259.7l-5.5-28.1a133.914,133.914,0,0,1-7.4-19.9,127.612,127.612,0,0,1,3.6,20.9Z" fill="#2c479e"/>
              <path id="Path_40" data-name="Path 40" d="M293.3,163.5l9.3,27.1a127.608,127.608,0,0,0,3.6,20.9,140.192,140.192,0,0,0-7.3-19.9Z" fill="#2c479e"/>
            </g>
          </g>
        </g>
      </g>
    </g>
  </g>
</svg>
