<svg xmlns="http://www.w3.org/2000/svg" width="137.241" height="137.241" viewBox="0 0 137.241 137.241">
  <g id="Icons" transform="translate(5 2)">
    <g id="Rounded" transform="translate(-5 -2)">
      <g id="Communication">
        <g id="_-Round-_-Communication-_-location_on" data-name="-Round-/-Communication-/-location_on">
          <g id="Group_10" data-name="Group 10">
            <path id="Path" d="M0,0H137.241V137.241H0Z" fill="none" fill-rule="evenodd"/>
            <path id="_Icon-Color" data-name="🔹Icon-Color" d="M45.029,2A40,40,0,0,0,5,42.029c0,23.846,25.275,56.726,35.683,69.25a5.677,5.677,0,0,0,8.749,0c10.35-12.523,35.626-45.4,35.626-69.25A40,40,0,0,0,45.029,2Zm0,54.325a14.3,14.3,0,1,1,14.3-14.3A14.3,14.3,0,0,1,45.029,56.325Z" transform="translate(23.592 9.437)" fill="#617985" fill-rule="evenodd"/>
          </g>
        </g>
      </g>
    </g>
  </g>
</svg>
