<svg xmlns="http://www.w3.org/2000/svg" width="274.073" height="273.724" viewBox="0 0 274.073 273.724">
  <g id="Layer_10" data-name="Layer 10" transform="translate(-4.5 -4.5)">
    <path id="Path_2" data-name="Path 2" d="M98.638,15.27A83.517,83.517,0,0,0,15.27,98.638c4.584,110.576,162.151,110.526,166.736,0A83.517,83.517,0,0,0,98.638,15.27Zm0,151.786A68.518,68.518,0,0,1,30.219,98.638c3.638-90.743,133.2-90.743,136.837,0a68.518,68.518,0,0,1-68.419,68.419Z" transform="translate(42.898 42.898)" fill="#adc2c4"/>
    <path id="Path_3" data-name="Path 3" d="M37.981,44.714a7.475,7.475,0,0,0,7.475-7.475V11.975a7.475,7.475,0,0,0-14.949,0V36.89a7.475,7.475,0,0,0,7.475,7.824Z" transform="translate(103.555)" fill="#adc2c4"/>
    <path id="Path_4" data-name="Path 4" d="M52.715,45.153A7.525,7.525,0,0,0,58,42.961l17.74-17.69A7.525,7.525,0,1,0,65.123,14.657L47.433,32.4a7.525,7.525,0,0,0,5.282,12.757Z" transform="translate(162.572 30.107)" fill="#adc2c4"/>
    <path id="Path_5" data-name="Path 5" d="M83.89,30.5H58.975a7.475,7.475,0,0,0,0,14.949H83.89a7.475,7.475,0,0,0,0-14.949Z" transform="translate(187.208 103.562)" fill="#adc2c4"/>
    <path id="Path_6" data-name="Path 6" d="M57.908,47.343A7.475,7.475,0,0,0,47.343,57.908l17.69,17.74A7.488,7.488,0,0,0,75.6,65.034Z" transform="translate(162.661 162.661)" fill="#adc2c4"/>
    <path id="Path_7" data-name="Path 7" d="M37.975,51.43A7.475,7.475,0,0,0,30.5,58.9V83.82a7.475,7.475,0,1,0,14.949,0V58.9A7.475,7.475,0,0,0,37.975,51.43Z" transform="translate(103.562 186.929)" fill="#adc2c4"/>
    <path id="Path_8" data-name="Path 8" d="M31.789,47.344l-17.74,17.69A7.525,7.525,0,0,0,24.663,75.648l17.69-17.74A7.475,7.475,0,0,0,31.789,47.344Z" transform="translate(30.715 162.661)" fill="#adc2c4"/>
    <path id="Path_9" data-name="Path 9" d="M37.239,30.5H11.975a7.475,7.475,0,0,0,0,14.949H36.89A7.477,7.477,0,0,0,37.239,30.5Z" transform="translate(0 103.562)" fill="#adc2c4"/>
    <path id="Path_10" data-name="Path 10" d="M32.4,42.961A7.475,7.475,0,0,0,42.961,32.4l-17.69-17.74A7.525,7.525,0,1,0,14.657,25.271Z" transform="translate(30.107 30.107)" fill="#adc2c4"/>
    <path id="Path_11" data-name="Path 11" d="M37.975,20.27A7.475,7.475,0,0,0,30.5,27.745V129.7a7.475,7.475,0,0,0,7.475,7.475C115.512,133.985,115.512,23.459,37.975,20.27Z" transform="translate(103.562 62.814)" fill="#adc2c4"/>
  </g>
</svg>
