<svg xmlns="http://www.w3.org/2000/svg" xmlns:xlink="http://www.w3.org/1999/xlink" viewBox="0 0 783.93 500"><defs><style>.cls-1,.cls-14,.cls-15,.cls-16,.cls-46,.cls-48,.cls-58,.cls-60,.cls-8{fill:none;}.cls-2{isolation:isolate;}.cls-3{fill:#fff;}.cls-4{opacity:0.4;}.cls-5{fill:#cfeffe;}.cls-6{fill:#b0eeff;}.cls-7{opacity:0.25;}.cls-14,.cls-15,.cls-8{stroke:#fff;}.cls-14,.cls-15,.cls-60,.cls-8{stroke-linecap:round;stroke-linejoin:round;}.cls-8{stroke-width:0.84px;}.cls-9{fill:#282228;}.cls-10{fill:#0e60d8;}.cls-11{fill:#1a6cf3;}.cls-12,.cls-52{fill:#5275a0;}.cls-12,.cls-51{opacity:0.35;}.cls-12,.cls-39,.cls-45,.cls-49,.cls-51{mix-blend-mode:multiply;}.cls-13{fill:#d7f6ff;}.cls-14{stroke-width:1.21px;}.cls-15{stroke-width:1.01px;}.cls-16{stroke:#389fe5;stroke-width:1.62px;}.cls-16,.cls-46,.cls-48,.cls-58{stroke-miterlimit:10;}.cls-17,.cls-25,.cls-27,.cls-30{fill:#f35431;}.cls-18{fill:#d3361c;}.cls-19{fill:#fbb800;}.cls-20{clip-path:url(#clip-path);}.cls-21{fill:#f2446d;}.cls-22{fill:#2045ce;}.cls-23{fill:#e72d27;}.cls-24{fill:#fec752;}.cls-25,.cls-27{font-size:6.92px;}.cls-25,.cls-27,.cls-30{font-family:OpenSans;}.cls-26{letter-spacing:-0.07em;}.cls-27{letter-spacing:-0.03em;}.cls-28{letter-spacing:-0.01em;}.cls-29{letter-spacing:0em;}.cls-30{font-size:3.75px;}.cls-31{letter-spacing:-0.01em;}.cls-32{letter-spacing:-0.01em;}.cls-33{letter-spacing:0em;}.cls-34{letter-spacing:-0.01em;}.cls-35{letter-spacing:0.01em;}.cls-36{letter-spacing:0em;}.cls-37{letter-spacing:-0.01em;}.cls-38{clip-path:url(#clip-path-2);}.cls-39{fill:#7a520b;}.cls-39,.cls-45{opacity:0.3;}.cls-40{fill:#97c4f2;opacity:0.32;}.cls-41{fill:#ffdcc5;}.cls-42{fill:#fca265;}.cls-43{fill:#ffe1bd;}.cls-44{fill:#2c1f23;}.cls-46,.cls-48{stroke:#2c1f23;}.cls-46{stroke-width:0.74px;}.cls-47{fill:#d8d8d8;}.cls-48{stroke-width:1.49px;}.cls-49{opacity:0.5;}.cls-50{fill:#feaf84;}.cls-53{fill:#ff7c48;}.cls-54{fill:#8fcaf2;}.cls-55{fill:#b1dafc;}.cls-56{fill:#f29d77;}.cls-57{fill:#9ddbf4;}.cls-58{stroke:#9ddbf4;}.cls-59{opacity:0.66;}.cls-60{stroke:#eaa221;stroke-width:1.91px;}</style><clipPath id="clip-path" transform="translate(33.93)"><rect class="cls-1" x="212.25" y="215.58" width="151.57" height="202.22" transform="translate(604.73 28.65) rotate(90)"/></clipPath><clipPath id="clip-path-2" transform="translate(33.93)"><rect class="cls-1" x="186.5" y="228.9" width="218.24" height="163.57"/></clipPath></defs><title>contact</title><g class="cls-2"><g id="BACKGROUND"><rect class="cls-3" x="33.93" width="750" height="500"/></g><g id="OBJECT"><g class="cls-4"><path class="cls-5" d="M289.25,155V88.15l-32.44,49.54v82.37h-20.9V102h-5.32L215.46,82.25,200.24,102H195V261.33H118.1V348.1H339.94V155Zm-58.66,42.36H200.33V193h30.26Zm0-8.62H200.33V184.4h30.26Zm0-8.62H200.33v-4.31h30.26Zm0-8.62H200.33v-4.31h30.26Zm0-8.61H200.33v-4.32h30.26Zm0-8.62H200.33v-4.32h30.26Zm0-8.62H200.33v-4.31h30.26Zm0-8.62H200.33V132.7h30.26Zm0-8.62H200.33v-4.31h30.26Zm0-8.61H200.33v-4.32h30.26Zm0-8.62H200.33v-4.31h30.26Zm54.55,209.93H282V109l3.14-4.81Z" transform="translate(33.93)"/><path class="cls-5" d="M518.36,155V88.15l-32.44,49.54v82.37H465V102H459.7L444.56,82.25,429.35,102h-5.23V261.33H347.21V348.1H569.05V155ZM459.7,197.34H429.44V193H459.7Zm0-8.62H429.44V184.4H459.7Zm0-8.62H429.44v-4.31H459.7Zm0-8.62H429.44v-4.31H459.7Zm0-8.61H429.44v-4.32H459.7Zm0-8.62H429.44v-4.32H459.7Zm0-8.62H429.44v-4.31H459.7Zm0-8.62H429.44V132.7H459.7Zm0-8.62H429.44v-4.31H459.7Zm0-8.61H429.44v-4.32H459.7Zm0-8.62H429.44v-4.31H459.7Zm54.55,209.93h-3.14V109l3.14-4.81Z" transform="translate(33.93)"/><path class="cls-5" d="M435.56,267.25v-151h-4.87V100.92H393V116.2h-4.84V306.09H352.79v-86H301.28V332.94H276.4V130.81H225.66V286.1h-5.95V193.66h-9.18L185,174.78v18.88h-5.6V307.83H166.93V153.22H154.36V99h-1.72v54.24H140.08V348.43H467.31V267.25ZM163.9,252.57H143.17v-3.36H163.9Zm0-7.78H143.17v-3.36H163.9Zm0-7.79H143.17v-3.36H163.9Zm0-7.77H143.17v-3.36H163.9Zm0-7.78H143.17v-3.36H163.9Zm0-7.78H143.17v-3.36H163.9Zm0-7.78H143.17v-3.36H163.9Zm0-7.77H143.17v-3.36H163.9Zm0-7.79H143.17V187H163.9Zm0-7.77H143.17V179.2H163.9Zm0-7.78H143.17v-3.36H163.9Zm0-7.78H143.17v-3.37H163.9Zm0-7.78H143.17v-3.36H163.9Zm72.69,46.3h-6.17v-8.61h6.17Zm0-14.36h-6.17v-8.63h6.17Zm0-14.38h-6.17v-8.61h6.17Zm0-14.36h-6.17v-8.63h6.17Zm0-14.38h-6.17v-8.62h6.17Zm11.72,57.48h-6.16v-8.61h6.16Zm0-14.36h-6.16v-8.63h6.16Zm0-14.38h-6.16v-8.61h6.16Zm0-14.36h-6.16v-8.63h6.16Zm0-14.38h-6.16v-8.62h6.16Zm11.74,57.48h-6.18v-8.61h6.18Zm0-14.36h-6.18v-8.63h6.18Zm0-14.38h-6.18v-8.61h6.18Zm0-14.36h-6.18v-8.63h6.18Zm0-14.38h-6.18v-8.62h6.18Zm11.72,57.48H265.6v-8.61h6.17Zm0-14.36H265.6v-8.63h6.17Zm0-14.38H265.6v-8.61h6.17Zm0-14.36H265.6v-8.63h6.17ZM440.42,338.33H434v-9h6.41Zm0-17.94H434v-9h6.41Zm0-17.94H434v-9h6.41Zm0-17.95H434v-9h6.41Zm11.9,53.83h-6.41v-9h6.41Zm0-17.94h-6.41v-9h6.41Zm0-17.94h-6.41v-9h6.41Zm0-17.95h-6.41v-9h6.41Zm11.9,53.83H457.8v-9h6.42Zm0-17.94H457.8v-9h6.42Zm0-17.94H457.8v-9h6.42Zm0-17.95H457.8v-9h6.42Z" transform="translate(33.93)"/><path class="cls-5" d="M586.07,251.2v-135H581.2V100.92H543.51V116.2h-4.84V306.09H503.3v-86H451.79V332.94H426.91V130.81H376.17V286.1h-5.95V193.66H361l-25.59-18.88v18.88h-5.59V307.83H317.43V153.22H304.87V99h-1.72v54.24H290.59V348.43H617.81V251.2ZM314.4,252.57H293.68v-3.36H314.4Zm0-7.78H293.68v-3.36H314.4Zm0-7.79H293.68v-3.36H314.4Zm0-7.77H293.68v-3.36H314.4Zm0-7.78H293.68v-3.36H314.4Zm0-7.78H293.68v-3.36H314.4Zm0-7.78H293.68v-3.36H314.4Zm0-7.77H293.68v-3.36H314.4Zm0-7.79H293.68V187H314.4Zm0-7.77H293.68V179.2H314.4Zm0-7.78H293.68v-3.36H314.4Zm0-7.78H293.68v-3.37H314.4Zm0-7.78H293.68v-3.36H314.4Zm72.7,46.3h-6.17v-8.61h6.17Zm0-14.36h-6.17v-8.63h6.17Zm0-14.38h-6.17v-8.61h6.17Zm0-14.36h-6.17v-8.63h6.17Zm0-14.38h-6.17v-8.62h6.17Zm11.72,57.48h-6.16v-8.61h6.16Zm0-14.36h-6.16v-8.63h6.16Zm0-14.38h-6.16v-8.61h6.16Zm0-14.36h-6.16v-8.63h6.16Zm0-14.38h-6.16v-8.62h6.16Zm11.73,57.48h-6.17v-8.61h6.17Zm0-14.36h-6.17v-8.63h6.17Zm0-14.38h-6.17v-8.61h6.17Zm0-14.36h-6.17v-8.63h6.17Zm0-14.38h-6.17v-8.62h6.17Zm11.72,57.48h-6.16v-8.61h6.16Zm0-14.36h-6.16v-8.63h6.16Zm0-14.38h-6.16v-8.61h6.16Zm0-14.36h-6.16v-8.63h6.16ZM594.18,314.55h-5.54v-7.74h5.54Zm0-15.49h-5.54v-7.74h5.54Zm0-15.49h-5.54v-7.74h5.54Zm0-15.5h-5.54v-7.73h5.54Zm10.28,46.48h-5.54v-7.74h5.54Zm0-15.49h-5.54v-7.74h5.54Zm0-15.49h-5.54v-7.74h5.54Zm0-15.5h-5.54v-7.73h5.54Zm10.27,46.48h-5.54v-7.74h5.54Zm0-15.49h-5.54v-7.74h5.54Zm0-15.49h-5.54v-7.74h5.54Zm0-15.5h-5.54v-7.73h5.54Z" transform="translate(33.93)"/><rect class="cls-5" x="651.74" y="280.02" width="21.98" height="103.92"/></g><path class="cls-6" d="M151.79,352.92c-2.92-2.36-5.94-4.86-7.47-8.29-1.42-3.18-3.21-6.61-3.84-10a28.12,28.12,0,0,0-3.83-9.65c-5.74-9.29-9.58-6.72-10.85-5.42s-1.39,3.18-.54,5.87c.68,2.16,5.69,11.64,1.91,11.3-4.37-.39-7.93-10.87-9.75-14.14-2.72-4.88-6.81-9.69-12.06-11.9-2.59-1.09-5.94-1.37-7.9.63A6.49,6.49,0,0,0,95.89,316c.06,5.07,3.29,9.21,6.54,12.79,1.37,1.49,10.27,7.48,5,8.45-1.26.23-13.94-4-12.06,4.37.66,2.95,4.86,4.74,11.19,6.6,4,1.17,17.7,3,18.22,6.33s-7.7.62-4.87,6.19c1.58,3.13,6.72,4,10.07,4.17,1.6.1,3.21-.12,4.8.08,1.88.23,4.52,1.49,4,3.81-.24,1-1.12,1.8-1.33,2.82a3,3,0,0,0,1.18,2.78,6.92,6.92,0,0,0,2.92,1.2c6.64,1.42,13.67-.46,19.52-3.93s10.65-8.42,15.1-13.55" transform="translate(33.93)"/><g class="cls-7"><path class="cls-8" d="M102.49,315.66s18.7,31.88,47,45.87" transform="translate(33.93)"/><path class="cls-8" d="M101,341.57s14.8,4.95,24.81,2.87" transform="translate(33.93)"/><path class="cls-8" d="M129.06,323.18c2.51,5.16,8.3,20,5.77,29.06" transform="translate(33.93)"/><path class="cls-8" d="M124.59,360.29s5.95,2.33,20.61-1.06" transform="translate(33.93)"/><path class="cls-8" d="M140.53,371.53a23.74,23.74,0,0,0,12.86-7.39" transform="translate(33.93)"/></g><rect class="cls-9" x="135.23" y="319.07" width="7.59" height="73.72" transform="translate(311.97 711.87) rotate(180)"/><rect class="cls-10" x="137.48" y="319.07" width="7.59" height="73.72" transform="translate(316.48 711.87) rotate(180)"/><path class="cls-11" d="M176.91,262.62h0a21.17,21.17,0,0,1,21.17,21.17v33.92a7.27,7.27,0,0,1-7.27,7.26h-85.1V262.62Z" transform="translate(33.93)"/><path class="cls-12" d="M105.71,321.39V325h85.1a7.26,7.26,0,0,0,7.26-7.26v-3.59a7.27,7.27,0,0,1-7.26,7.27Z" transform="translate(33.93)"/><path class="cls-9" d="M90.12,325h30.44a6.32,6.32,0,0,0,6.32-6.32V283.79a21.17,21.17,0,0,0-21.17-21.17h0a21.17,21.17,0,0,0-21.17,21.17v35.6A5.58,5.58,0,0,0,90.12,325Z" transform="translate(33.93)"/><rect class="cls-11" x="94.73" y="280.42" width="21.96" height="3.95" transform="translate(245.35 564.79) rotate(180)"/><path class="cls-9" d="M143.16,285.79V254h5.56a1.34,1.34,0,0,0,1.33-1.34v-2.71a1.34,1.34,0,0,0-1.33-1.33h-7.13a1.43,1.43,0,0,0-1.44,1.43v35.77Z" transform="translate(33.93)"/><path class="cls-9" d="M136.73,285.11a5.11,5.11,0,1,0,5.11-5.11A5.11,5.11,0,0,0,136.73,285.11Z" transform="translate(33.93)"/><path class="cls-3" d="M139.26,285.11a2.58,2.58,0,1,0,2.58-2.58A2.58,2.58,0,0,0,139.26,285.11Z" transform="translate(33.93)"/><path class="cls-6" d="M188.78,330.75c.74-3.69,1.55-7.52,3.88-10.47,2.16-2.73,4.38-5.9,7.12-8a28.13,28.13,0,0,0,6.78-7.87c5.58-9.39,1.51-11.6-.23-12.12s-3.46.24-5.45,2.24c-1.6,1.6-7.68,10.42-9.13,6.92-1.68-4.05,6-12.06,8-15.18,3.08-4.68,5.44-10.53,5-16.21-.23-2.8-1.53-5.9-4.22-6.71a6.5,6.5,0,0,0-4.85.77c-4.46,2.4-6.64,7.18-8.3,11.72-.69,1.9-1.87,12.57-5.17,8.35-.79-1-2.88-14.22-9.46-8.66-2.31,2-1.95,6.51-.67,13,.8,4,5.55,17.06,2.83,19.08s-4.11-6.55-7.74-1.45c-2,2.85-.4,7.79,1,10.86.65,1.45,1.6,2.78,2.15,4.28.66,1.78.78,4.7-1.54,5.29-1,.26-2.11-.17-3.11.12a3,3,0,0,0-1.92,2.34,7,7,0,0,0,.29,3.14c1.82,6.54,6.74,11.91,12.52,15.48s12.4,5.54,19,7.11" transform="translate(33.93)"/><g class="cls-7"><path class="cls-8" d="M199,269.79s-19.59,31.35-18.87,62.92" transform="translate(33.93)"/><path class="cls-8" d="M175.31,280.47s2.47,15.41,8.94,23.31" transform="translate(33.93)"/><path class="cls-8" d="M204.61,296.83c-3.41,4.62-13.89,16.62-23.08,18.57" transform="translate(33.93)"/><path class="cls-8" d="M169.65,310.06s.69,6.35,10.49,17.77" transform="translate(33.93)"/><path class="cls-8" d="M167.07,329.39a23.7,23.7,0,0,0,12.51,8" transform="translate(33.93)"/></g><path class="cls-13" d="M181.38,335.8c-1.21-6.87-20.41-49.74-42.64-38.26-13.2,6.82-10.83,31.93,9.8,50.89-4-3.91-8.73-8.35-14.25-9.45-3-.59-6.63.79-8.87,2.85-2,1.84-2.57,4.74-2.67,7.44a29.29,29.29,0,0,0,13.05,25.05c-4.56-2.54-8.51-5.74-13.72-6.18-1.69-.15-4.56.82-5.34,2.33s-.79,7.78,9.25,12.37c-40.93-7.76-43.31,9.69-28.6,9.69H218" transform="translate(33.93)"/><path class="cls-6" d="M194.82,359.19c-.71-4-8.14-29.39-21.18-22.66-7.74,4-6.35,18.73,5.75,29.85-2.38-2.29-5.12-4.9-8.36-5.54a6.44,6.44,0,0,0-5.2,1.67,6,6,0,0,0-1.56,4.36,17.18,17.18,0,0,0,7.65,14.7c-2.68-1.5-5-3.37-8-3.63a3.73,3.73,0,0,0-3.13,1.36c-.5,1-.47,4.57,5.42,7.26-24-4.55-25.4,5.68-16.77,5.68h57" transform="translate(33.93)"/><path class="cls-6" d="M579.33,349.66c4.47-3.13,9.11-6.44,11.68-11.25,2.39-4.46,5.33-9.26,6.6-14.16a40.82,40.82,0,0,1,6.55-13.59c9.27-12.88,14.58-8.75,16.29-6.73s1.68,4.75.18,8.56c-1.21,3.06-9.45,16.28-3.94,16.19,6.38-.11,12.61-14.94,15.59-19.49,4.44-6.81,10.87-13.36,18.72-16,3.86-1.31,8.74-1.38,11.39,1.73a9.46,9.46,0,0,1,1.78,6.92c-.6,7.34-5.71,13-10.8,17.86-2.12,2-15.65,9.78-8.12,11.74,1.8.46,20.62-4.42,17,7.57-1.26,4.22-7.54,6.38-16.91,8.43-5.84,1.28-26,2.5-27.06,7.3s11.1,1.68,6.42,9.47c-2.62,4.37-10.15,5.06-15,5-2.33,0-4.64-.51-7-.39-2.75.16-6.71,1.7-6.15,5.13.24,1.5,1.44,2.71,1.63,4.22a4.31,4.31,0,0,1-2,3.91,10.1,10.1,0,0,1-4.34,1.44c-9.78,1.37-19.79-2.08-27.9-7.7s-14.57-13.31-20.5-21.21" transform="translate(33.93)"/><g class="cls-7"><path class="cls-14" d="M654.64,300.71s-30.4,44.3-72.89,61.66" transform="translate(33.93)"/><path class="cls-14" d="M654.14,338.43s-22,5.65-36.25,1.62" transform="translate(33.93)"/><path class="cls-14" d="M615.34,308.88c-4.17,7.23-14.1,28.16-11.36,41.54" transform="translate(33.93)"/><path class="cls-14" d="M618,363.14s-8.87,2.77-29.77-3.66" transform="translate(33.93)"/><path class="cls-14" d="M593.73,377.79s-11.07-2.67-17.88-12" transform="translate(33.93)"/></g><path class="cls-6" d="M518.77,280.68c1.33-4.34,2.68-8.87,1.91-13.34-.72-4.14-1.24-8.79-2.92-12.64a34.13,34.13,0,0,1-2.65-12.26c-.51-13.17,5.08-13.18,7.23-12.73s3.53,2.25,4.49,5.52c.77,2.62,2.14,15.49,5.7,12.61,4.12-3.33.62-16.23.25-20.73-.57-6.73.3-14.31,4.08-20.06,1.86-2.83,5-5.37,8.34-4.69a7.9,7.9,0,0,1,4.71,3.62c3.35,5.12,2.91,11.45,2.05,17.22-.36,2.42-5.26,14.41.67,11.84,1.42-.61,11.26-13.43,15-3.74,1.33,3.42-1.68,8-6.77,14.16-3.18,3.83-15.73,14.91-14,18.62s8.14-4.57,9.05,2.92c.52,4.2-4.07,8.5-7.29,11-1.54,1.17-3.3,2-4.76,3.31-1.72,1.5-3.53,4.54-1.41,6.5.93.86,2.34,1,3.23,1.93a3.59,3.59,0,0,1,.69,3.58,8.4,8.4,0,0,1-2.12,3.16c-5.7,5.9-14,8.76-22.21,9.21s-16.35-1.27-24.27-3.42" transform="translate(33.93)"/><g class="cls-7"><path class="cls-15" d="M543.1,210.13s2.72,44.55-16.25,77.64" transform="translate(33.93)"/><path class="cls-15" d="M562,235.09s-11.5,14.93-22.92,19.59" transform="translate(33.93)"/><path class="cls-15" d="M521.52,235.56c1,6.87,5.16,25.65,13.79,33" transform="translate(33.93)"/><path class="cls-15" d="M551,269.75s-4.39,6.34-21.37,12.82" transform="translate(33.93)"/><path class="cls-15" d="M542.58,291.75S534,295.66,524.71,293" transform="translate(33.93)"/></g><path class="cls-13" d="M510.81,326.75c1.8-8.4,32.4-65.29,65.39-51.26,19.59,8.34,16.07,39-14.54,62.21,6-4.78,13-10.21,21.14-11.55A18.74,18.74,0,0,1,596,329.63c2.95,2.24,3.82,5.79,3.95,9.09.5,12-7.11,24.07-19.36,30.63,6.77-3.12,12.63-7,20.36-7.56,2.51-.18,6.76,1,7.93,2.84,1.26,2,1.17,9.52-13.73,15.13,60.74-9.49,64.28,11.84,42.45,11.84H493.28" transform="translate(33.93)"/><line class="cls-16" x1="108.35" y1="391.89" x2="709.5" y2="391.89"/><path class="cls-17" d="M173.91,174.7l-1.59.34h0a.61.61,0,0,1-.73-.48.62.62,0,0,1,.47-.73l1.66-.36a.62.62,0,0,1,.26,1.22h0Z" transform="translate(33.93)"/><path class="cls-17" d="M170,175.72c-1,.34-2,.73-3,1.17a.6.6,0,0,1-.49-1.09c1-.46,2.06-.87,3.13-1.24a.62.62,0,0,1,.77.38.6.6,0,0,1-.38.77Z" transform="translate(33.93)"/><path class="cls-17" d="M164.77,178q-1.44.75-2.82,1.62a.58.58,0,1,1-.62-1c.94-.6,1.91-1.16,2.89-1.69a.59.59,0,0,1,.8.25.58.58,0,0,1-.25.79Z" transform="translate(33.93)"/><path class="cls-17" d="M159.93,180.93c-.88.64-1.74,1.31-2.55,2a.56.56,0,0,1-.74-.84c.84-.74,1.71-1.44,2.62-2.1a.57.57,0,0,1,.67.92Z" transform="translate(33.93)"/><path class="cls-17" d="M155.59,184.62a27.51,27.51,0,0,0-2.15,2.42.54.54,0,0,1-.85-.67,29.76,29.76,0,0,1,2.22-2.53.55.55,0,0,1,.78,0,.54.54,0,0,1,0,.77Z" transform="translate(33.93)"/><path class="cls-17" d="M152,189a20.27,20.27,0,0,0-1.52,2.83.51.51,0,0,1-.68.27.52.52,0,0,1-.27-.68,20.81,20.81,0,0,1,1.58-3,.53.53,0,0,1,.73-.17.52.52,0,0,1,.16.73Z" transform="translate(33.93)"/><path class="cls-17" d="M149.72,194.11a14,14,0,0,0-.49,3.14.5.5,0,0,1-1,0,15.42,15.42,0,0,1,.5-3.38.51.51,0,0,1,1,.26Z" transform="translate(33.93)"/><path class="cls-17" d="M149.35,199.63a13.25,13.25,0,0,0,.83,3.08.49.49,0,0,1-.27.62.48.48,0,0,1-.63-.27,14.9,14.9,0,0,1-.9-3.28.49.49,0,0,1,1-.15Z" transform="translate(33.93)"/><path class="cls-17" d="M151.23,204.86a20.21,20.21,0,0,0,1.87,2.63.46.46,0,1,1-.7.59,19.3,19.3,0,0,1-2-2.74.47.47,0,0,1,.81-.48Z" transform="translate(33.93)"/><path class="cls-17" d="M154.76,209.26a23.58,23.58,0,0,0,2.5,2.06.44.44,0,0,1,.1.61.44.44,0,0,1-.61.11,24.25,24.25,0,0,1-2.61-2.13.45.45,0,0,1,.62-.66Z" transform="translate(33.93)"/><path class="cls-17" d="M159.31,212.62a22.26,22.26,0,0,0,2.93,1.36.43.43,0,0,1,.25.54.42.42,0,0,1-.54.25,22.83,22.83,0,0,1-3.06-1.4.44.44,0,0,1-.17-.59.45.45,0,0,1,.59-.17Z" transform="translate(33.93)"/><path class="cls-17" d="M164.56,214.72a21.53,21.53,0,0,0,3.19.57.39.39,0,0,1,.36.43.41.41,0,0,1-.44.36,20.83,20.83,0,0,1-3.31-.57.41.41,0,1,1,.2-.79Z" transform="translate(33.93)"/><path class="cls-17" d="M170.18,215.39a19.08,19.08,0,0,0,3.21-.32.38.38,0,1,1,.15.74,18,18,0,0,1-3.35.36.39.39,0,0,1-.4-.38.4.4,0,0,1,.38-.4Z" transform="translate(33.93)"/><path class="cls-17" d="M175.7,214.4a8.47,8.47,0,0,0,2.68-1.65.36.36,0,0,1,.51,0,.37.37,0,0,1,0,.51,9.27,9.27,0,0,1-2.9,1.82.37.37,0,0,1-.28-.69Z" transform="translate(33.93)"/><path class="cls-17" d="M179.78,210.87a7.75,7.75,0,0,0,.76-3.05.34.34,0,0,1,.36-.32.34.34,0,0,1,.32.36,8.58,8.58,0,0,1-.81,3.32.35.35,0,0,1-.63-.31Z" transform="translate(33.93)"/><path class="cls-17" d="M180.36,205.46a6.21,6.21,0,0,0-1.47-2.74.32.32,0,0,1,0-.45.33.33,0,0,1,.46,0,6.94,6.94,0,0,1,1.64,3,.34.34,0,0,1-.65.17Z" transform="translate(33.93)"/><path class="cls-17" d="M177.05,201.22a12.05,12.05,0,0,0-3-1.24.31.31,0,0,1-.21-.37.3.3,0,0,1,.37-.21,12.47,12.47,0,0,1,3.12,1.29.31.31,0,0,1,.11.43.33.33,0,0,1-.43.11Z" transform="translate(33.93)"/><path class="cls-17" d="M171.71,199.5a19.73,19.73,0,0,0-3.26-.15.28.28,0,0,1-.28-.28.27.27,0,0,1,.27-.28,20.74,20.74,0,0,1,3.34.13.28.28,0,0,1,.25.32.29.29,0,0,1-.32.26Z" transform="translate(33.93)"/><path class="cls-17" d="M166,199.54a28.72,28.72,0,0,0-3.2.63.26.26,0,0,1-.32-.18.26.26,0,0,1,.18-.32,28.3,28.3,0,0,1,3.27-.67.28.28,0,0,1,.31.24.27.27,0,0,1-.23.3Z" transform="translate(33.93)"/><path class="cls-17" d="M160.47,200.9a27.59,27.59,0,0,0-3,1.3.24.24,0,0,1-.32-.11.24.24,0,0,1,.1-.32,26.62,26.62,0,0,1,3-1.34.25.25,0,1,1,.18.47Z" transform="translate(33.93)"/><path class="cls-17" d="M155.33,203.41a25.15,25.15,0,0,0-2.64,1.93.22.22,0,1,1-.29-.34,25.72,25.72,0,0,1,2.68-2,.23.23,0,1,1,.25.39Z" transform="translate(33.93)"/><path class="cls-17" d="M150.89,207a24,24,0,0,0-2.12,2.5.2.2,0,0,1-.28.05.22.22,0,0,1,0-.28,23.7,23.7,0,0,1,2.13-2.56.21.21,0,1,1,.31.29Z" transform="translate(33.93)"/><path class="cls-17" d="M147.44,211.56a23.57,23.57,0,0,0-1.43,2.95.18.18,0,0,1-.23.1.18.18,0,0,1-.11-.23,25.13,25.13,0,0,1,1.43-3,.21.21,0,0,1,.27-.07.19.19,0,0,1,.07.26Z" transform="translate(33.93)"/><path class="cls-17" d="M145.22,216.84a26.84,26.84,0,0,0-.7,3.2.16.16,0,0,1-.18.14.18.18,0,0,1-.14-.19,26.1,26.1,0,0,1,.69-3.25.17.17,0,0,1,.21-.12.18.18,0,0,1,.12.21Z" transform="translate(33.93)"/><path class="cls-17" d="M144.26,222.49a23.94,23.94,0,0,0,0,3.28.14.14,0,0,1-.13.15.14.14,0,0,1-.15-.13,24.52,24.52,0,0,1,0-3.32.16.16,0,0,1,.16-.15.17.17,0,0,1,.15.16h0Z" transform="translate(33.93)"/><path class="cls-17" d="M144.62,228.2a17.15,17.15,0,0,0,1,3.1.1.1,0,0,1-.06.15.11.11,0,0,1-.15,0,16,16,0,0,1-1.09-3.14.12.12,0,0,1,.09-.16.13.13,0,0,1,.16.1Z" transform="translate(33.93)"/><path class="cls-17" d="M146.86,233.45a19.34,19.34,0,0,0,2,2.57.1.1,0,1,1-.14.13,17.8,17.8,0,0,1-2.08-2.58.11.11,0,1,1,.18-.12Z" transform="translate(33.93)"/><path class="cls-17" d="M150.69,237.71a26.55,26.55,0,0,0,2.65,1.95.08.08,0,0,1,0,.11.09.09,0,0,1-.11,0,26.85,26.85,0,0,1-2.68-1.94.09.09,0,0,1,0-.13.08.08,0,0,1,.12,0Z" transform="translate(33.93)"/><path class="cls-17" d="M155.47,240.92c1,.52,2,1,3,1.43a.06.06,0,0,1,0,.08.08.08,0,0,1-.08,0c-1-.43-2-.9-3-1.42a.07.07,0,0,1,0-.1.07.07,0,0,1,.09,0Z" transform="translate(33.93)"/><path class="cls-17" d="M160.74,243.27c1,.38,2.08.72,3.13,1a.05.05,0,0,1,0,0,0,0,0,0,1-.05,0c-1.06-.3-2.11-.64-3.15-1a0,0,0,0,1,0-.06,0,0,0,0,1,.06,0Z" transform="translate(33.93)"/><path class="cls-17" d="M166.26,245l3.23.71h0a0,0,0,0,1,0,0l-3.23-.69s0,0,0,0,0,0,0,0Z" transform="translate(33.93)"/><polygon class="cls-17" points="205.86 246.07 207.51 246.27 205.86 246.08 205.86 246.07 205.86 246.07 205.86 246.07"/><path class="cls-18" d="M188.66,156.59c.13-.14-10.31,2.06-10.31,2.06l-3,15.16,8.06-9.23,11.77,1.88,21-9.08Z" transform="translate(33.93)"/><polygon class="cls-17" points="250.17 157.38 209.3 173.81 217.37 164.58 250.17 157.38"/><polygon class="cls-17" points="250.17 157.38 206.17 151.28 212.28 158.65 250.17 157.38 217.37 164.58 227.62 177.5 250.17 157.38"/><rect class="cls-19" x="220.86" y="240.91" width="202.21" height="151.56"/><g class="cls-20"><rect class="cls-21" x="265.54" y="335.84" width="337.2" height="12.1" transform="translate(-82.41 390.32) rotate(-43.25)"/><line class="cls-22" x1="269.45" y1="457.41" x2="515.07" y2="226.38"/><rect class="cls-10" x="189.74" y="335.84" width="337.2" height="12.1" transform="translate(-103 338.38) rotate(-43.25)"/><line class="cls-22" x1="193.65" y1="457.41" x2="439.27" y2="226.38"/><rect class="cls-23" x="113.93" y="335.84" width="337.2" height="12.1" transform="translate(-123.59 286.45) rotate(-43.25)"/><line class="cls-22" x1="117.85" y1="457.41" x2="363.47" y2="226.38"/><rect class="cls-10" x="38.13" y="335.84" width="337.2" height="12.1" transform="translate(-144.18 234.51) rotate(-43.25)"/><line class="cls-22" x1="42.05" y1="457.41" x2="287.67" y2="226.38"/><rect class="cls-10" x="-37.67" y="335.84" width="337.2" height="12.1" transform="translate(-164.77 182.57) rotate(-43.25)"/><rect class="cls-11" x="227.64" y="335.84" width="337.2" height="12.1" transform="translate(-92.7 364.35) rotate(-43.25)"/><rect class="cls-11" x="151.84" y="335.84" width="337.2" height="12.1" transform="translate(-113.29 312.42) rotate(-43.25)"/><rect class="cls-23" x="76.03" y="335.84" width="337.2" height="12.1" transform="translate(-133.88 260.48) rotate(-43.25)"/><rect class="cls-23" x="0.23" y="335.84" width="337.2" height="12.1" transform="translate(-154.47 208.54) rotate(-43.25)"/><rect class="cls-23" x="-75.57" y="335.84" width="337.2" height="12.1" transform="translate(-175.06 156.6) rotate(-43.25)"/></g><rect class="cls-24" x="226.62" y="246.67" width="190.69" height="140.04"/><rect class="cls-17" x="349.89" y="348.63" width="54.74" height="0.58"/><rect class="cls-17" x="349.89" y="359.94" width="54.74" height="0.58"/><rect class="cls-17" x="349.89" y="371.24" width="54.74" height="0.58"/><text class="cls-25" transform="translate(349.89 342.98)"><tspan class="cls-26">T</tspan><tspan x="2.95" y="0">o:</tspan></text><rect class="cls-17" x="239.3" y="273.43" width="83.92" height="0.58"/><rect class="cls-17" x="239.3" y="284.73" width="83.92" height="0.58"/><text class="cls-27" transform="translate(239.3 267.78)">F<tspan class="cls-28" x="3.19" y="0">r</tspan><tspan class="cls-29" x="5.38" y="0">om:</tspan></text><text class="cls-30" transform="translate(239.3 361.32)"><tspan class="cls-31">L</tspan><tspan x="1.72" y="0">o</tspan><tspan class="cls-32" x="3.77" y="0">r</tspan><tspan x="4.96" y="0">em ipsum dolor sit ame</tspan><tspan class="cls-33" x="41.56" y="0">t</tspan><tspan x="42.79" y="0">, </tspan><tspan class="cls-34" x="44.36" y="0">c</tspan><tspan x="46.02" y="0">onse</tspan><tspan class="cls-35" x="53.51" y="0">c</tspan><tspan class="cls-34" x="55.24" y="0">t</tspan><tspan x="56.46" y="0">es</tspan><tspan x="0" y="4.5">adipiscing eli</tspan><tspan class="cls-33" x="20.45" y="4.5">t</tspan><tspan x="21.68" y="4.5">, sed do eiusmod </tspan><tspan class="cls-34" x="48.87" y="4.5">t</tspan><tspan x="50.08" y="4.5">empor incididu</tspan><tspan class="cls-36" x="73.97" y="4.5">n</tspan><tspan x="76.03" y="4.5">t </tspan><tspan x="0" y="8.99">ut labo</tspan><tspan class="cls-32" x="10.98" y="8.99">r</tspan><tspan x="12.17" y="8.99">e et dolo</tspan><tspan class="cls-37" x="25.86" y="8.99">r</tspan><tspan x="27.05" y="8.99">e mansi.</tspan></text><g class="cls-38"><path class="cls-6" d="M185.22,331.43c.75-3.68,5.11-8.2,7.44-11.15,2.16-2.73,4.38-5.9,7.12-8a28.13,28.13,0,0,0,6.78-7.87c5.58-9.39,1.51-11.6-.23-12.12s-3.46.24-5.45,2.24c-1.6,1.6-7.68,10.42-9.13,6.92-1.68-4.05,6-12.06,8-15.18,3.08-4.68,5.44-10.53,5-16.21-.23-2.8-1.53-5.9-4.22-6.71a6.5,6.5,0,0,0-4.85.77c-4.46,2.4-6.64,7.18-8.3,11.72-.69,1.9-1.87,12.57-5.17,8.35-.79-1-2.88-14.22-9.46-8.66-2.31,2-1.95,6.51-.67,13,.8,4,5.55,17.06,2.83,19.08s-4.11-6.55-7.74-1.45c-2,2.85-.4,7.79,1,10.86.65,1.45,1.6,2.78,2.15,4.28.66,1.78.78,4.7-1.54,5.29-1,.26-2.11-.17-3.11.12a3,3,0,0,0-1.92,2.34,7,7,0,0,0,.29,3.14c1.82,6.54,6.74,11.91,12.52,15.48s2.45,4.47,9.06,6" transform="translate(33.93)"/><g class="cls-7"><path class="cls-8" d="M199,269.79s-19.59,31.35-18.87,62.92" transform="translate(33.93)"/><path class="cls-8" d="M175.31,280.47s2.47,15.41,8.94,23.31" transform="translate(33.93)"/><path class="cls-8" d="M204.61,296.83c-3.41,4.62-13.89,16.62-23.08,18.57" transform="translate(33.93)"/><path class="cls-8" d="M169.65,310.06s.69,6.35,10.49,17.77" transform="translate(33.93)"/><path class="cls-8" d="M167.07,329.39a23.7,23.7,0,0,0,12.51,8" transform="translate(33.93)"/></g></g><path class="cls-39" d="M282.77,392.56H190a6.9,6.9,0,0,1,3.21-7.48,7,7,0,0,1,3.47-1,86.14,86.14,0,0,1,13.84.74v-.19c-3.86-3.1-7.65-7-7.83-10.18a37.9,37.9,0,0,1,.66-7.69A129.84,129.84,0,0,1,206.19,354a5.36,5.36,0,0,1-.72-.49s5.13-25.23,24.87-25.17l.14.29c1.48-.93,1.85-3.38,1.93-4.55a7.81,7.81,0,0,1-2.94-3.17c-.9,0-2.42-.22-3.1-1.31,0,0-3.19,0-3.58-2.65a5,5,0,0,1,1-4.05,3.9,3.9,0,0,1-2.94-2.7,3.18,3.18,0,0,1,1.5-3.68,3.37,3.37,0,0,1,0-5c1.5-1.68,3.7-.31,3.7-.31a3.17,3.17,0,0,1,2.8-3.86c3.7-.54,4,2.59,4,2.59s0-4.55,4.78-3.58c3.68.76,3.27,3.74,3.18,4.3.23-.56,1.59-3.31,4.9-1.54a3.6,3.6,0,0,1,1.6,4.81,3.26,3.26,0,0,1,3.41,2.78c.87,4.42-1.74,5.32-1.74,5.32a3.47,3.47,0,0,1,1.72,3.44,4.27,4.27,0,0,1-3.22,3.57,4.77,4.77,0,0,1-4.3,2,7.47,7.47,0,0,1-3.44,3.25c0,.2,0,.39,0,.61a5.2,5.2,0,0,0,1.07,2.92,2.88,2.88,0,0,0,1,.7c0-.06,0-.12.06-.2,19.37-.21,25.3,25.39,25.3,25.39s-.17.09-.46.21c0,0,1.83,6.5,2.88,12.73a.12.12,0,0,0,0,.08v.06a38.71,38.71,0,0,1,.66,7.63s0,.08,0,.11a6.55,6.55,0,0,1-.2,1c0,.11-.07.25-.13.39s-.22.54-.35.83l-.18.37c-.21.37-.45.76-.72,1.15-.06.1-.12.18-.17.27-.24.32-.49.65-.76,1l-.33.41c-.26.29-.53.58-.82.87-.1.12-.2.24-.29.33-.37.39-.76.76-1.17,1.15l-.41.35c-.29.27-.58.53-.88.78l-.5.45c-.29.23-.59.47-.88.72l-.45.35a85.75,85.75,0,0,1,14.08-.72,7,7,0,0,1,3.17.87A6.9,6.9,0,0,1,282.77,392.56Z" transform="translate(33.93)"/><path class="cls-40" d="M294.18,404.21c0,2.16-24.29,3.92-54.26,3.92s-54.26-1.76-54.26-3.92,24.29-3.92,54.26-3.92S294.18,402,294.18,404.21Z" transform="translate(33.93)"/><path class="cls-23" d="M236.17,320.2s-2.71.28-3.67-1.25c0,0-3.12-.05-3.49-2.59a4.78,4.78,0,0,1,1-3.92,3.76,3.76,0,0,1-2.84-2.63,3.08,3.08,0,0,1,1.45-3.57,3.28,3.28,0,0,1,0-4.87c1.46-1.62,3.59-.3,3.59-.3a3.08,3.08,0,0,1,2.72-3.75c3.61-.53,3.83,2.51,3.83,2.51s0-4.42,4.67-3.47c4,.8,3.05,4.27,3.05,4.27s1.22-3.5,4.79-1.59a3.49,3.49,0,0,1,1.57,4.66,3.16,3.16,0,0,1,3.29,2.71c.85,4.29-1.68,5.16-1.68,5.16a3.37,3.37,0,0,1,1.66,3.35A4.13,4.13,0,0,1,253,318.4a4.53,4.53,0,0,1-4.47,1.91" transform="translate(33.93)"/><path class="cls-41" d="M248.47,327.64s-.32,5.86-5.65,5.69a7.33,7.33,0,0,1-3-.7,8.48,8.48,0,0,1-4-4.63c2.54-.65,2.54-5.33,2.54-5.33l7,.21a10.19,10.19,0,0,0,.07,1.22,5.1,5.1,0,0,0,1,2.82C247.66,328.1,248.47,327.64,248.47,327.64Z" transform="translate(33.93)"/><path class="cls-42" d="M240.09,324.72s-2,2.72-1.5,4.34,1.81,3.13,3.06,3.3l-1.79.27a8.48,8.48,0,0,1-4-4.63c2.54-.65,2.54-5.33,2.54-5.33l7,.21a10.19,10.19,0,0,0,.07,1.22A6.77,6.77,0,0,1,240.09,324.72Z" transform="translate(33.93)"/><path d="M236.36,327.43s2,4.91,5.8,5c4,.06,4.87-2.53,5.39-5,18.83-.21,24.6,24.67,24.6,24.67a35,35,0,0,1-4.06,1.56,16.66,16.66,0,0,0-3.7,1.61l-2.55,34.53h-40l-.68-34.55s-2.63-.63-4.75-1.33a13.69,13.69,0,0,1-4.27-2S217.18,327.38,236.36,327.43Z" transform="translate(33.93)"/><path class="cls-43" d="M212.89,352.29s-3.82,13.48-3.46,19.92S225,387.67,225,387.67l2-6.8s-6.33-2.69-7.26-7.61,3-17.68,3-17.68l-4.14-1.13A33.38,33.38,0,0,1,212.89,352.29Z" transform="translate(33.93)"/><path class="cls-42" d="M227,380.88l-1.31,4.48-.69,2.31s-15.22-9-15.57-15.46,3.47-19.92,3.47-19.92.88.46,2.24,1a29.46,29.46,0,0,0,3.42,1.16l4.14,1.13s-3.9,12.77-3,17.69S227,380.88,227,380.88Z" transform="translate(33.93)"/><path class="cls-41" d="M227,380.88l-1.31,4.48c-4.19-2.74-13.21-9.2-13.48-14.14s1.89-13.94,2.93-17.93a29.46,29.46,0,0,0,3.42,1.16l4.14,1.13s-3.9,12.77-3,17.69S227,380.88,227,380.88Z" transform="translate(33.93)"/><path class="cls-43" d="M271.68,352.29s3.82,13.48,3.46,19.92-15.57,15.46-15.57,15.46l-2-6.8s6.33-2.69,7.26-7.61-3.4-17.74-3.4-17.74l4.58-1.25A44.09,44.09,0,0,0,271.68,352.29Z" transform="translate(33.93)"/><path class="cls-42" d="M275.14,372.21c-.25,4.73-8.51,10.83-12.89,13.75-1.59,1.06-2.68,1.71-2.68,1.71l-2-6.79a17.72,17.72,0,0,0,2.71-1.56l.15-.1h0c1.81-1.28,3.89-3.29,4.39-6,.94-4.92-3.4-17.75-3.4-17.75l3-.81,1.62-.44a44.6,44.6,0,0,0,5.67-2S275.5,365.78,275.14,372.21Z" transform="translate(33.93)"/><path class="cls-41" d="M275.14,372.21c-.25,4.73-8.51,10.83-12.89,13.75l-1.95-6.64v0l.16-.07h0c1-.46,6.25-3.09,7.1-7.54.8-4.19-2.24-14.12-3.15-17l1.62-.44a44.6,44.6,0,0,0,5.67-2S275.5,365.78,275.14,372.21Z" transform="translate(33.93)"/><path class="cls-23" d="M266.72,390.35H217.34l-1.12-30.94a1.42,1.42,0,0,1,1.41-1.47h48.79a1.43,1.43,0,0,1,1.42,1.47Z" transform="translate(33.93)"/><path class="cls-23" d="M266.13,398.7a3.92,3.92,0,0,1,2.85-1.06c1.29,0,4.95.79,6.69.76s3.56-.41,4.56,1.08c1.7,2.52,1,4.8-1.89,5.15-1.56.18-2.84-.85-5.32-.6s-6.12-.56-7.21-2.27" transform="translate(33.93)"/><path class="cls-42" d="M262.76,397.53a18.57,18.57,0,0,0,3.2.62c1.28.07,4.15-.25,5.45.56s.89,3.28,0,3.85c-1.44.91-2.6.44-5.23-.39a16.38,16.38,0,0,0-5.72-.51" transform="translate(33.93)"/><path class="cls-11" d="M203.59,381.58a6.8,6.8,0,0,0-6.45,8.47,1.21,1.21,0,0,0,.05.18c1.79,6.35,10.11,9.57,19.87,10.86S263.43,403,263.43,403s1.59-1.95.95-6.62A140.76,140.76,0,0,1,244.31,390C230.12,384.32,217.82,381.13,203.59,381.58Z" transform="translate(33.93)"/><path class="cls-23" d="M272.24,399s-1-.54-1.29,0a8.38,8.38,0,0,0-.33,3.44c.3.68,1.72.43,1.72.43l1.16-3.13Z" transform="translate(33.93)"/><path class="cls-23" d="M218.16,398.82a4,4,0,0,0-2.91-1.11c-1.32,0-5.07.8-6.86.76s-3.54-.42-4.68.78c-2.15,2.26-.15,5.1,2.78,5.46,1.59.2,2.06-.72,4.59-.46s6.28-.56,7.4-2.31" transform="translate(33.93)"/><path class="cls-42" d="M221.63,397.62a19.31,19.31,0,0,1-3.29.63c-1.31.06-4.25-.28-5.59.56s-.91,3.35,0,3.93c1.47.94,2.66.46,5.36-.37a16.9,16.9,0,0,1,5.86-.51" transform="translate(33.93)"/><path class="cls-11" d="M280.8,381.73a6.82,6.82,0,0,1,6.43,8.49l-.06.19c-1.81,6.34-10.15,9.53-19.91,10.78S220.89,403,220.89,403s-1.59-2-.93-6.63A141,141,0,0,0,240.05,390C254.26,384.38,266.57,381.23,280.8,381.73Z" transform="translate(33.93)"/><path d="M220,396.34c1.88-.52,3.74-1.07,5.6-1.63s3.72-1.14,5.57-1.76,3.69-1.23,5.52-1.87,3.67-1.31,5.52-1.92c-1.78.79-3.57,1.56-5.39,2.26s-3.66,1.35-5.51,2-3.72,1.17-5.61,1.67S221.88,396,220,396.34Z" transform="translate(33.93)"/><path class="cls-23" d="M211.9,399.12s1-.55,1.33,0a8.6,8.6,0,0,1,.32,3.52c-.31.7-1.77.45-1.77.45l-1.17-3.21Z" transform="translate(33.93)"/><path class="cls-42" d="M243.41,324.07h-.07a9.12,9.12,0,0,1-1.81,0s-8.95,1.14-7.88-16.56h17S252.45,323.07,243.41,324.07Z" transform="translate(33.93)"/><path class="cls-41" d="M243.41,324.07h-.07c-.89.06-8.82.15-7.81-16.56h15.09S252.45,323.07,243.41,324.07Z" transform="translate(33.93)"/><path class="cls-23" d="M232.69,313a2.09,2.09,0,0,0,2.38-1.44s2.88-.3,3-2.78c0,0,2.53.89,3.77-.9a2.58,2.58,0,0,0,2.16,1.74,2.07,2.07,0,0,0,2.06-1,3,3,0,0,0,2.44,2.68c2.27.35,2.88-2.13,2.88-2.13l-.59-3.63-6.56-.84-9.34.94-3.42.45Z" transform="translate(33.93)"/><path class="cls-3" d="M244.85,373.16a3.18,3.18,0,1,1-3.18-3.18A3.17,3.17,0,0,1,244.85,373.16Z" transform="translate(33.93)"/><path class="cls-44" d="M563.68,238a101.91,101.91,0,0,1,6.68-8.36,98,98,0,0,1,7.42-7.7A113.69,113.69,0,0,1,563.68,238Z" transform="translate(33.93)"/><path class="cls-44" d="M564.47,223.7a15.59,15.59,0,0,1,.82-4,15.15,15.15,0,0,1,1.77-3.73,14.8,14.8,0,0,1-.82,4A15.09,15.09,0,0,1,564.47,223.7Z" transform="translate(33.93)"/><path class="cls-44" d="M560.31,236.2a17.51,17.51,0,0,1,.94-4.4,17.9,17.9,0,0,1,1.88-4.08,17.51,17.51,0,0,1-.94,4.4A17.9,17.9,0,0,1,560.31,236.2Z" transform="translate(33.93)"/><path class="cls-44" d="M579.78,237.5a15.08,15.08,0,0,1,6.84-3.25,13.14,13.14,0,0,1-3.22,2.06A13.38,13.38,0,0,1,579.78,237.5Z" transform="translate(33.93)"/><path class="cls-44" d="M568.1,243.06a15.76,15.76,0,0,1,3.48-2.19,15.34,15.34,0,0,1,3.9-1.32,15.48,15.48,0,0,1-3.48,2.18A16.18,16.18,0,0,1,568.1,243.06Z" transform="translate(33.93)"/><path class="cls-44" d="M570.28,247.91A100.52,100.52,0,0,1,581,247.6a97.81,97.81,0,0,1,10.67.68,103.24,103.24,0,0,1-10.69.32A100.39,100.39,0,0,1,570.28,247.91Z" transform="translate(33.93)"/><path class="cls-9" d="M512.62,344.56c-3.73,14.95,15.61,22.64,27.3,23.21,5.86.29,13.33-3,13.3-9.89,0-5.18-4.94-8.67-9.68-9.29-6.32-.82-11.45,3.59-14.87,8.44-4.19,6-7.76,13.41-9,20.62-1.09,6.27-.25,13.18,3.77,18.32,4.29,5.48,11.33,7.64,18,8,9.15.56,17.21-2.4,25.18-6.56,7.2-3.76,17.23-8.59,24.69-2.62,1.48,1.19,3.6-.9,2.1-2.1-9.62-7.71-21.34-1.37-30.65,3.37-6.28,3.2-12.86,5.19-20,5-6-.17-12.5-1.7-16.57-6.37-8.69-9.94-2-25.12,3.93-34.61,2.9-4.6,7.57-9.67,13.57-8.51,5.69,1.11,9.06,7.33,3.56,11.33-3.26,2.37-7.5,2.09-11.24,1.31a53.07,53.07,0,0,1-10.15-3.09c-6.15-2.67-12.26-8.48-10.43-15.82.47-1.86-2.4-2.65-2.87-.79Z" transform="translate(33.93)"/><path class="cls-45" d="M367.35,240.91V392.47h-40a19.68,19.68,0,0,1-.13-6.32l18.19-129.7A40.1,40.1,0,0,1,351,240.91Z" transform="translate(33.93)"/><path class="cls-10" d="M530.15,409.62c-5.44,8.13-16.34,8.13-21.1,8.13l-155.56-8.92c-4.75,0-14.76,2.5-17.46-1.42-3-4.42-3.21-14.54-2.26-21.26L352,256.44a40.19,40.19,0,0,1,11.39-22.85l16-15,19.4,15.36,77.7-5.9,8.28-8.61,14.78,10.75a39.54,39.54,0,0,1,15.84,24.67c.09.53.18,1.07.26,1.61l18.19,129.71C535.68,394.49,533.92,404,530.15,409.62Z" transform="translate(33.93)"/><path class="cls-11" d="M521.65,413a19,19,0,0,1-12.6,4.8H352.94a19,19,0,0,1-12.6-4.8,20.23,20.23,0,0,1-6.58-17.89l17.69-129.7a40.64,40.64,0,0,1,11.07-22.85L376.6,228h20.71l.28-11.16,62.22.86,4.87,10.3h20.71l13.78,12.38a19.88,19.88,0,0,1,1.61,1.57c5.52,6.17,8.63,15.1,9.76,23.38l17.69,129.7A20.23,20.23,0,0,1,521.65,413Z" transform="translate(33.93)"/><path class="cls-10" d="M521.65,413a19,19,0,0,1-12.6,4.8H352.94a19,19,0,0,1-12.6-4.8,20.23,20.23,0,0,1-6.58-17.89l.34-2.49a19.91,19.91,0,0,0,6.24,10.54,19,19,0,0,0,12.6,4.79H509.05a19.07,19.07,0,0,0,12.6-4.79,19.91,19.91,0,0,0,6.24-10.54l.34,2.49A20.23,20.23,0,0,1,521.65,413Z" transform="translate(33.93)"/><path class="cls-44" d="M377.84,228l1.39-18.22a4.63,4.63,0,0,1,4.62-4.28h7.88a4.64,4.64,0,0,1,4.62,4.32L397.59,228Z" transform="translate(33.93)"/><path class="cls-44" d="M465.59,228,467,209.8a4.64,4.64,0,0,1,4.62-4.28h7.88a4.63,4.63,0,0,1,4.62,4.32L485.34,228Z" transform="translate(33.93)"/><polygon class="cls-10" points="500.39 228.03 430.8 228.03 430.75 216.86 500.36 216.93 500.39 228.03"/><circle class="cls-44" cx="467.72" cy="315.5" r="20.25"/><circle class="cls-46" cx="467.72" cy="315.5" r="22.57"/><circle class="cls-3" cx="423.1" cy="284.37" r="4.39" transform="translate(-45.32 197.6) rotate(-24.11)"/><path class="cls-44" d="M423.61,283.05a1.42,1.42,0,1,1-1.83.82A1.42,1.42,0,0,1,423.61,283.05Z" transform="translate(33.93)"/><path class="cls-47" d="M427,282.46a4.3,4.3,0,0,1,.16,3.47,4.37,4.37,0,0,1-5.66,2.54A4.32,4.32,0,0,1,419,286a4.38,4.38,0,0,0,8-3.53Z" transform="translate(33.93)"/><path class="cls-3" d="M408.59,289.47a4.39,4.39,0,1,1-3.64,5A4.39,4.39,0,0,1,408.59,289.47Z" transform="translate(33.93)"/><path class="cls-44" d="M409.06,292.41a1.41,1.41,0,1,1,.45,2.79,1.41,1.41,0,0,1-.45-2.79Z" transform="translate(33.93)"/><path class="cls-47" d="M411.74,290.17a4.38,4.38,0,1,1-5.17,7.07,4.29,4.29,0,0,0,3.11.67,4.38,4.38,0,0,0,2.06-7.74Z" transform="translate(33.93)"/><path class="cls-3" d="M402.46,304.51a4.39,4.39,0,1,1-4.79,3.95A4.39,4.39,0,0,1,402.46,304.51Z" transform="translate(33.93)"/><path class="cls-44" d="M402.17,307.47a1.42,1.42,0,1,1-1.54,1.28A1.41,1.41,0,0,1,402.17,307.47Z" transform="translate(33.93)"/><path class="cls-47" d="M405.33,306a4.32,4.32,0,0,1,1.08,3.31,4.39,4.39,0,0,1-4.79,3.95,4.33,4.33,0,0,1-3.08-1.73,4.38,4.38,0,0,0,7.63-2.51A4.29,4.29,0,0,0,405.33,306Z" transform="translate(33.93)"/><path class="cls-3" d="M403.52,321.17a4.39,4.39,0,1,1-4.6,4.17A4.4,4.4,0,0,1,403.52,321.17Z" transform="translate(33.93)"/><path class="cls-44" d="M403.37,324.14a1.42,1.42,0,1,1-1.48,1.35A1.42,1.42,0,0,1,403.37,324.14Z" transform="translate(33.93)"/><path class="cls-47" d="M406.46,322.52a4.3,4.3,0,0,1,1.22,3.26,4.38,4.38,0,0,1-4.6,4.16,4.33,4.33,0,0,1-3.16-1.59,4.39,4.39,0,0,0,6.54-5.83Z" transform="translate(33.93)"/><path class="cls-3" d="M412.48,335a4.39,4.39,0,1,1-4.13,4.63A4.39,4.39,0,0,1,412.48,335Z" transform="translate(33.93)"/><path class="cls-44" d="M412.65,338a1.42,1.42,0,1,1-1.33,1.49A1.4,1.4,0,0,1,412.65,338Z" transform="translate(33.93)"/><path class="cls-47" d="M415.55,336a4.38,4.38,0,1,1-5.87,6.5,4.3,4.3,0,0,0,3,1,4.38,4.38,0,0,0,2.85-7.49Z" transform="translate(33.93)"/><circle class="cls-3" cx="427.81" cy="346.62" r="4.39" transform="translate(-65.8 188.92) rotate(-22.37)"/><path class="cls-44" d="M427.58,345.22a1.42,1.42,0,1,1-1.17,1.62A1.42,1.42,0,0,1,427.58,345.22Z" transform="translate(33.93)"/><path class="cls-47" d="M430.27,343a4.39,4.39,0,0,1-1.77,8,4.26,4.26,0,0,1-3.41-.9,4.34,4.34,0,0,0,3.11.68,4.39,4.39,0,0,0,2.07-7.74Z" transform="translate(33.93)"/><path class="cls-3" d="M442.56,341.41a4.39,4.39,0,1,1-2,5.87A4.39,4.39,0,0,1,442.56,341.41Z" transform="translate(33.93)"/><path class="cls-44" d="M443.87,344.09a1.4,1.4,0,0,1,1.89.65,1.41,1.41,0,1,1-2.54,1.24A1.4,1.4,0,0,1,443.87,344.09Z" transform="translate(33.93)"/><path class="cls-47" d="M445.79,341.17a4.39,4.39,0,1,1-2.91,8.27,4.39,4.39,0,0,0,2.91-8.27Z" transform="translate(33.93)"/><path class="cls-3" d="M458.44,331.54a4.39,4.39,0,1,1-4.53,4.25A4.39,4.39,0,0,1,458.44,331.54Z" transform="translate(33.93)"/><circle class="cls-44" cx="492.23" cy="335.93" r="1.42"/><path class="cls-47" d="M461.41,332.83a4.38,4.38,0,0,1-3.25,7.48,4.3,4.3,0,0,1-3.18-1.53,4.39,4.39,0,0,0,6.43-5.95Z" transform="translate(33.93)"/><path class="cls-3" d="M465.73,316.46a4.39,4.39,0,1,1-4.57,4.21A4.4,4.4,0,0,1,465.73,316.46Z" transform="translate(33.93)"/><path class="cls-44" d="M465.61,319.44a1.42,1.42,0,0,1,1.36,1.47,1.42,1.42,0,1,1-2.84-.12A1.42,1.42,0,0,1,465.61,319.44Z" transform="translate(33.93)"/><path class="cls-47" d="M468.68,317.78a4.39,4.39,0,1,1-6.48,5.9,4.39,4.39,0,0,0,6.48-5.9Z" transform="translate(33.93)"/><path class="cls-3" d="M463.61,299.83a4.39,4.39,0,1,1-3.66,5A4.39,4.39,0,0,1,463.61,299.83Z" transform="translate(33.93)"/><path class="cls-44" d="M464.07,302.77a1.42,1.42,0,1,1-1.18,1.62A1.42,1.42,0,0,1,464.07,302.77Z" transform="translate(33.93)"/><path class="cls-47" d="M466.76,300.55a4.39,4.39,0,1,1-5.21,7.05,4.39,4.39,0,0,0,5.21-7.05Z" transform="translate(33.93)"/><circle class="cls-48" cx="433.79" cy="315.5" r="40.94" transform="translate(-62.11 399.15) rotate(-45)"/><path class="cls-44" d="M480.41,296.47c0-1,.51-1.67,1.52-1.67s1.53.66,1.53,1.67v3.43c0,1-.5,1.68-1.53,1.68s-1.52-.66-1.52-1.68Zm.74,3.48c0,.6.25,1,.78,1s.79-.36.79-1v-3.51c0-.61-.24-1-.79-1s-.78.36-.78,1Z" transform="translate(33.93)"/><path class="cls-44" d="M415.74,265.2a2,2,0,0,1-.92.28v-.61A1.12,1.12,0,0,0,416,264h.51v6.65h-.73Z" transform="translate(33.93)"/><path class="cls-44" d="M397.65,278.94c0,2-2.25,2.73-2.26,4.26v.1h2.18V284h-2.91v-.57c0-2.15,2.25-2.57,2.25-4.44,0-.68-.23-1.05-.78-1.05s-.78.39-.78,1v.59h-.69V279c0-1,.46-1.69,1.49-1.69S397.65,277.92,397.65,278.94Z" transform="translate(33.93)"/><path class="cls-44" d="M384.16,304.64v.17a1.58,1.58,0,0,0,0,2.75v.51c0,1-.47,1.68-1.5,1.68s-1.49-.66-1.49-1.68v-.45h.69v.5c0,.6.25,1,.78,1s.78-.35.78-1v-.51c0-.66-.27-1-.83-1h-.4v-.66h.43a.8.8,0,0,0,.8-.92v-.3c0-.68-.23-1-.78-1s-.78.37-.78,1V305h-.69v-.31c0-1,.48-1.67,1.49-1.67S384.16,303.63,384.16,304.64Z" transform="translate(33.93)"/><path class="cls-44" d="M385.85,333.88v1.34h-.72v-1.34H383v-.68l2.07-4.63h.8v4.63h.53v.68Zm-2.18-.68h1.46V330Z" transform="translate(33.93)"/><path class="cls-44" d="M401.05,353.72a1.07,1.07,0,0,1,1-.55c.86,0,1.24.62,1.24,1.57V356c0,1-.48,1.69-1.5,1.69s-1.49-.67-1.49-1.69v-.44H401v.49c0,.6.25,1,.78,1s.78-.36.78-1V354.8c0-.6-.25-1-.78-1a.72.72,0,0,0-.75.71v.16h-.69l.18-3.7h2.62v.67h-2Z" transform="translate(33.93)"/><path class="cls-44" d="M427.06,364v.12h-.69V364c0-.6-.25-.95-.79-.95s-.81.36-.81,1.07v1.49a1.07,1.07,0,0,1,1.07-.71c.86,0,1.24.62,1.24,1.58v1c0,1-.5,1.68-1.52,1.68s-1.53-.67-1.53-1.68v-3.39c0-1.06.47-1.71,1.53-1.71S427.06,363,427.06,364Zm-2.29,2.49v1c0,.6.25,1,.79,1s.79-.36.79-1v-1c0-.6-.26-1-.79-1S424.77,365.9,424.77,366.5Z" transform="translate(33.93)"/><path class="cls-44" d="M453.16,360.27H450.9v-.67h3v.65l-1.71,6h-.74Z" transform="translate(33.93)"/><path class="cls-44" d="M476.31,344v.2a1.31,1.31,0,0,1-.76,1.37,1.35,1.35,0,0,1,.76,1.41v.49a1.57,1.57,0,1,1-3.14,0V347a1.35,1.35,0,0,1,.77-1.41,1.3,1.3,0,0,1-.77-1.37V344a1.57,1.57,0,1,1,3.14,0Zm-2.41,0v.33c0,.64.32.93.84.93s.84-.29.84-.93v-.33c0-.68-.32-1-.84-1S473.9,343.37,473.9,344.05Zm0,2.88v.56c0,.69.31,1,.84,1s.83-.32.84-1v-.56c0-.64-.29-1-.84-1S473.9,346.29,473.9,346.93Z" transform="translate(33.93)"/><path class="cls-44" d="M486.51,321v3.4c0,1-.47,1.71-1.54,1.71s-1.5-.65-1.5-1.67v-.12h.7v.17c0,.6.25.95.79.95s.81-.36.81-1.06v-1.5a1.06,1.06,0,0,1-1.07.71c-.86,0-1.24-.61-1.24-1.57v-1c0-1,.5-1.67,1.52-1.67S486.51,319.94,486.51,321Zm-2.31,0v1c0,.6.25,1,.78,1s.79-.36.79-1v-1c0-.61-.24-1-.79-1S484.2,320.31,484.2,320.92Z" transform="translate(33.93)"/><path class="cls-49" d="M457.75,217.06l-1.42,8.1s-8.63,3.17-10.58,3.2S435,229.61,435,229.61s1.21,6.29.42,10.14-7.32,33.17-7.32,33.17l-1.4.89v3a5.41,5.41,0,0,1,1.4,1.82,17,17,0,0,1,.37,4.14s-1.8.27-4.24.6c-.66.09-1.38-1.31-2.1-1.22-4.93.65-10.92,2.84-10.92,2.32a5.49,5.49,0,0,1,1.2-2.32l7.15-1.22,1.68-51.32s-7,.57-7.3,1.61.24,6.58.21,9.09c0,2.23-2.94,29.93-2.94,29.93a6.78,6.78,0,0,0-1.13.37c.07.27-.51.93-.22,2,.4,1.45,1.65,3.41,1.35,4.11-.52,1.21-3.46,1.35-3.46,1.35l-2.07-9.87-.86-21.13-1.17-13.3L405.91,223l16.76-3.79,34.17-2.27" transform="translate(33.93)"/><path class="cls-50" d="M403.64,269.54a35.38,35.38,0,0,0,0,4.45c.19,1.18,3.95.94,4.34.29s.14-6.09.14-6.09" transform="translate(33.93)"/><path class="cls-19" d="M409.06,275.44c.06,1.24,0,3.56,0,3.56l-3.88.78-.46-.67a6.73,6.73,0,0,1-2.31,1.15,14.8,14.8,0,0,1-3.64.21c-3.17-.33-5.33-1.4-5.42-1.87-.38-2,8.9-3.42,9.43-4.67.38-.9.18-1.11.7-1a1.25,1.25,0,0,1,.8.61,2.3,2.3,0,0,0,2.4,1.12,2.76,2.76,0,0,0,1.48-.77A1.59,1.59,0,0,1,409.06,275.44Z" transform="translate(33.93)"/><path class="cls-23" d="M436.93,225.27c-5.79-.1-21.09,2.28-26.93,2.79.3,2.42,1.61,5.71,1.66,9,.17,11-1.33,24.75-2.58,33.57,0,0-2.32,2.42-5.67-.08-2.61-14.92-6.34-44.83-5-50.84,1.76-7.66,25.13-13.71,39.59-12.59" transform="translate(33.93)"/><g class="cls-51"><path class="cls-52" d="M438.05,207.16c-10.22-.79-24.87,2-33.22,6.4a20.51,20.51,0,0,1,5,3.09,7.82,7.82,0,0,1,2.83,5.8,19.49,19.49,0,0,1-.68,5.41c6.76-.75,19.75-2.68,25-2.59Z" transform="translate(33.93)"/></g><path class="cls-50" d="M418,274.12a35.67,35.67,0,0,0,.2,4.44c.23,1.17,4,.79,4.35.13s-.09-6.09-.09-6.09" transform="translate(33.93)"/><path class="cls-19" d="M423.62,279.81c.1,1.23.09,3.56.09,3.56l-3.85.92-.49-.65a6.61,6.61,0,0,1-2.26,1.23,14.76,14.76,0,0,1-3.63.35c-3.18-.21-5.37-1.2-5.48-1.67-.46-1.94,8.76-3.75,9.24-5,.35-.92.15-1.12.67-1a1.28,1.28,0,0,1,.82.58,2.3,2.3,0,0,0,2.44,1,2.76,2.76,0,0,0,1.45-.83A1.6,1.6,0,0,1,423.62,279.81Z" transform="translate(33.93)"/><path class="cls-23" d="M459.57,207.93c1.52,3.52,2.51,9.88,1,12.61-1.33,2.39-2,3.87-4.23,4.62-9.7,3.21-18.13,2.59-29.08,1.92,4.52,12.21-2.52,36.93-3.54,48-4.1,1.82-6.42-.12-6.42-.12.46-22.57-4.57-54.11-1.52-59.5,1.85-3.28,24-7.61,24.38-7.55" transform="translate(33.93)"/><path class="cls-50" d="M381.64,177.47l-2.65-.15a2.91,2.91,0,0,0-1.27.25,15,15,0,0,1-2.24.77c-1.91.5-3.77-.15-5-.36s-.21-1.37,1.63-1.48.84.26,1.73-.28-.83-1.36-2.22-1.87a21.79,21.79,0,0,1-2.55-1.17c-1.34-.63-2.53-1-3.31-1.48-.54-.31-1-.85-.38-1s4.37.84,5.2.89,1.29-1.18,3.5-1.19,4.41,2.34,5.43,2.91,5,.26,5,.26" transform="translate(33.93)"/><path class="cls-17" d="M434.52,155.63s-5.26,0-8.51,2.28c-1.83,1.29-17.71,11.67-19.68,12.73S380,173.11,380,173.11a4.34,4.34,0,0,0-1.27,2.82,10.88,10.88,0,0,0,.54,3.24s24.1,2.24,29.17,1.19,25.39-9.72,25.39-9.72" transform="translate(33.93)"/><path class="cls-53" d="M459.69,208.1c-2.62,6.36-16.6,4.06-24.05,4.33-6.67.24-8.32-2.05-8.32-2.05.25-9.53,1.81-16.6.32-23.54-2.55-11.8-4-26.26-1.63-28.93,4.65-3.55,17-6.15,26.74-3.13,7.29,2.26,9.6,4.4,9.15,9.88C461.76,166.48,456.85,200.29,459.69,208.1Z" transform="translate(33.93)"/><polygon class="cls-54" points="483.13 209.7 447.87 206.94 468.33 216.24 483.13 209.7"/><polygon class="cls-55" points="468.2 217.06 482.93 210.94 483.13 209.7 468.14 215.84 468.2 217.06"/><path class="cls-50" d="M432.41,204.4l-3,1.38a5,5,0,0,0-5.66-.22c-3,1.93,0,8.18,2.14,7.72s8.52-4.54,8.52-4.54Z" transform="translate(33.93)"/><path class="cls-17" d="M432.92,210.38s-1.61-.5-2.19-3.12a8.9,8.9,0,0,1,.24-3s8.31-4.94,14.2-9.43a43.32,43.32,0,0,1,8.65-5.31q-.74-7.59-1.48-15.18c-.27-2.69-.94-6.18-.57-8.86.49-3.59,1.85-9.39,6.22-8.67,7.79,1.3,5.94,17.75,5.66,23.76-.18,4.09.17,11.08-2.37,14.56C457.45,200.42,432.92,210.38,432.92,210.38Z" transform="translate(33.93)"/><path class="cls-55" d="M434.27,217.06l-32.39-5.25a2.31,2.31,0,0,1-1.94-2.18l-1-22.88a1.93,1.93,0,0,1,2.25-2l30.33,4.92a1.93,1.93,0,0,1,1.63,1.83Z" transform="translate(33.93)"/><path class="cls-50" d="M433.43,145.3c.78.29-.4,5.3,1.35,5.78a16.74,16.74,0,0,0,4.6.33c0,.13-.39,2.83-.39,2.83l.4,1.69h3.08l4.24-1.16s.14-5.42.31-6.06a24.5,24.5,0,0,0,2.91-4.63,12.68,12.68,0,0,0,1.21-4.23c0-2.89-.1-5.91-2-7.4s-13.9-6.82-14.23,2c0,0-1.49,6.12-2.09,7.68-.19.52-1,2.18-.84,2.7S433.05,145.16,433.43,145.3Z" transform="translate(33.93)"/><path class="cls-56" d="M439.23,152.54a9.66,9.66,0,0,1-.51,1.86l.67,1.36,3.08.17,4.24-1.16s.14-5.42.31-6.06a24.5,24.5,0,0,0,2.91-4.63l-.15-1.7s-3.72-.91-3.86-.89-.17,7.34-.29,9.39c-1.51,1.2-3.29,2.58-4,2.59A4.12,4.12,0,0,1,439.23,152.54Z" transform="translate(33.93)"/><path d="M445.92,141.49s-2.91,3.73-2.81-2.23a.42.42,0,0,0-.41-.37c-.79-.1-2.6-.71-2.5-4.31a.54.54,0,0,0-.57-.54,37.44,37.44,0,0,0-3.86.26,4.4,4.4,0,0,0-.71.19,11.45,11.45,0,0,0-.53,1.78c-.08.25-.35,1.8-.35,1.8s-1-.31-1-.95a17,17,0,0,0,.14-2.38c-.13-.31-1.11-.54-1.27-1.28-.37-1.68-1.08-8.21,4.62-5.12.75.4,3.57.5,5.2.33,2.28-.23,12.41.42,11.2,9.92-.72,5.64-1.63,7.5-3.13,8.61-.25.19-1.5,1.39-1.71,1.51a1.75,1.75,0,0,1-1.23.18,4.41,4.41,0,0,1-.34-1.54C446.6,145.44,446.75,142.15,445.92,141.49Z" transform="translate(33.93)"/><path class="cls-50" d="M445.69,141.28s.19-1.94,1.77-1.67c2.13.37,2.13,5.59-2.33,5.66A16.38,16.38,0,0,1,445.69,141.28Z" transform="translate(33.93)"/><path class="cls-3" d="M447.28,151.25a16,16,0,0,1,1.92,2.67,8.07,8.07,0,0,1-2.12,1.65c-1.13.59-6.37,3.45-6.37,3.45l-1.32-3.26S444.75,152.75,447.28,151.25Z" transform="translate(33.93)"/><path class="cls-3" d="M439.39,155.76a7.33,7.33,0,0,0-2.46,2.64,12.39,12.39,0,0,1,.21-5,9.53,9.53,0,0,1,2.24-1.92A14.84,14.84,0,0,0,439.39,155.76Z" transform="translate(33.93)"/><path class="cls-23" d="M447.14,138.31a16.36,16.36,0,0,0-.18-4.13,7,7,0,0,0-2.62-4.43,6.48,6.48,0,0,0-4.95-1,7,7,0,0,1,4.68,1.37,6.77,6.77,0,0,1,2.31,4.19,16.89,16.89,0,0,1,.26,4l-.26,0a4.14,4.14,0,0,0-2.46,7.48,7.29,7.29,0,0,1-6.14,2.7,1,1,0,0,0-.91-.49.8.8,0,1,0,0,1.55,1,1,0,0,0,.88-.45h.2a7.78,7.78,0,0,0,6.48-3,4,4,0,0,0,1.95.51,4.15,4.15,0,0,0,.76-8.23Z" transform="translate(33.93)"/><path class="cls-9" d="M608.81,404.65c-10.47,5.36-25.58,1.63-32.42-12h0c-22.92-42-60.53-118.49-60.53-118.49-6.78-15.85-1.15-28,9.25-33.33h0l4.19-2.14h0l12-5.73c.83,9.91,2.5,11.21,5.12,16.35l9.65,3.53c2.63,5.13,9.92,13.45,4.79,16.07l-9.16,4.68a4,4,0,0,0-1.75,5.43l42.5,83.19a4,4,0,0,0,5.42,1.76l8.06-4c5.14-2.63,9.33,9.29,12,14.43L630.3,382c-3.4,4.12.36,11.35-4.77,14L613,402.51h0l-4.2,2.14Z" transform="translate(33.93)"/><path class="cls-10" d="M627.68,383.94l-9.27-18.13a10.44,10.44,0,0,0-14-4.56l-9.15,4.68a4,4,0,0,1-5.43-1.76L547.28,281a4,4,0,0,1,1.75-5.43l1.06-.54a4,4,0,0,0-.18,4l42.5,83.21a4,4,0,0,0,5.42,1.75l7.47-3.68c5.13-2.63,5.19,2.6,7.81,7.73l9.83,6.33" transform="translate(33.93)"/><ellipse class="cls-10" cx="615.3" cy="378.16" rx="14.09" ry="20.5" transform="translate(-72.37 348.33) rotate(-29.21)"/><path class="cls-9" d="M625.31,396.05c-.12.06-.23.13-.35.18,6.54-3.94,7.46-14.86,2-24.6s-15.17-14.65-22-11.2l.28-.17c6.79-3.8,16.78,1.13,22.31,11S632.1,392.25,625.31,396.05Z" transform="translate(33.93)"/><ellipse class="cls-10" cx="550.48" cy="251.21" rx="13.04" ry="20.5" transform="translate(-18.67 300.56) rotate(-29.21)"/><path class="cls-9" d="M560.48,269.11l-.31.16c6.15-3.6,6.7-14.36,1.23-24.16s-14.85-14.91-21.13-11.67l.2-.12c6.29-3.52,15.86,1.65,21.39,11.53S566.77,265.59,560.48,269.11Z" transform="translate(33.93)"/><path class="cls-57" d="M323.63,117.1h-1.79v-1.79a.53.53,0,1,0-1,0v1.79H319a.52.52,0,0,0-.52.52.52.52,0,0,0,.52.53h1.79v1.79a.53.53,0,0,0,1,0v-1.79h1.79a.52.52,0,0,0,.52-.53A.52.52,0,0,0,323.63,117.1Z" transform="translate(33.93)"/><path class="cls-57" d="M314.38,258.43h-1.79v-1.79a.52.52,0,0,0-.52-.53.53.53,0,0,0-.53.53v1.79h-1.79a.52.52,0,0,0-.52.52.52.52,0,0,0,.52.53h1.79v1.79a.52.52,0,0,0,.53.52.52.52,0,0,0,.52-.52v-1.79h1.79a.53.53,0,0,0,.53-.53A.52.52,0,0,0,314.38,258.43Z" transform="translate(33.93)"/><path class="cls-57" d="M611.74,196.8H610V195a.53.53,0,0,0-.53-.52.52.52,0,0,0-.52.52v1.8h-1.79a.52.52,0,1,0,0,1h1.79v1.8a.52.52,0,0,0,.52.52.52.52,0,0,0,.53-.52v-1.8h1.79a.52.52,0,1,0,0-1Z" transform="translate(33.93)"/><path class="cls-57" d="M143.59,139.39H141.8V137.6a.52.52,0,0,0-.52-.53.53.53,0,0,0-.53.53v1.79H139a.52.52,0,0,0-.52.52.52.52,0,0,0,.52.53h1.79v1.79a.52.52,0,0,0,.53.52.52.52,0,0,0,.52-.52v-1.79h1.79a.53.53,0,0,0,.53-.53A.52.52,0,0,0,143.59,139.39Z" transform="translate(33.93)"/><path class="cls-57" d="M523.84,173.34h-1.79v-1.8a.52.52,0,0,0-.53-.52.52.52,0,0,0-.52.52v1.8h-1.79a.52.52,0,1,0,0,1H521v1.79a.52.52,0,0,0,.52.53.53.53,0,0,0,.53-.53v-1.79h1.79a.52.52,0,0,0,0-1Z" transform="translate(33.93)"/><path class="cls-58" d="M392.25,155.82a1.86,1.86,0,1,1-1.86-1.85A1.86,1.86,0,0,1,392.25,155.82Z" transform="translate(33.93)"/><path class="cls-58" d="M554.87,110.54a1.86,1.86,0,1,1-1.85-1.85A1.85,1.85,0,0,1,554.87,110.54Z" transform="translate(33.93)"/><path class="cls-58" d="M633,270.53a1.85,1.85,0,1,1-1.85-1.85A1.85,1.85,0,0,1,633,270.53Z" transform="translate(33.93)"/><path class="cls-58" d="M252.63,179.42a1.86,1.86,0,1,1-1.86-1.86A1.85,1.85,0,0,1,252.63,179.42Z" transform="translate(33.93)"/><path class="cls-58" d="M102.85,221.33a1.86,1.86,0,1,1-1.86-1.85A1.85,1.85,0,0,1,102.85,221.33Z" transform="translate(33.93)"/><rect class="cls-24" x="490.39" y="93.32" width="73.64" height="36.13" rx="3.44"/><g class="cls-59"><line class="cls-60" x1="555.52" y1="118.72" x2="540.23" y2="118.72"/><line class="cls-60" x1="509.68" y1="113.27" x2="499.33" y2="113.27"/><line class="cls-60" x1="555.52" y1="113.27" x2="514.16" y2="113.27"/><line class="cls-60" x1="555.52" y1="107.83" x2="499.33" y2="107.83"/><line class="cls-60" x1="516.65" y1="102.38" x2="499.33" y2="102.38"/><line class="cls-60" x1="555.52" y1="102.38" x2="520.97" y2="102.38"/><line class="cls-60" x1="535.76" y1="118.72" x2="499.33" y2="118.72"/></g><polygon class="cls-24" points="502.68 129.46 495.97 137.61 495.97 129.46 502.68 129.46"/></g></g></svg>